<svg width="24" height="24" viewBox="0 0 24 24" fill="none" xmlns="http://www.w3.org/2000/svg">
<path fill-rule="evenodd" clip-rule="evenodd" d="M12 17.3866L17.6738 19.7578C17.8714 19.8404 18.0895 19.6953 18.0895 19.481V4.5C18.0895 4.33431 17.9552 4.2 17.7895 4.2H6.20947C6.04379 4.2 5.90947 4.33431 5.90947 4.5V19.4812C5.90947 19.6954 6.1275 19.8406 6.32515 19.758L12 17.3866ZM12 19.5L16.9218 21.557C18.4042 22.1765 20.0395 21.0876 20.0395 19.481V4.5C20.0395 3.25736 19.0321 2.25 17.7895 2.25H6.20947C4.96683 2.25 3.95947 3.25736 3.95947 4.5V19.4812C3.95947 21.0878 5.59468 22.1767 7.07701 21.5572L12 19.5Z" fill="#BEBEBE"/>
</svg>
