<svg width="32" height="32" viewBox="0 0 32 32" fill="none" xmlns="http://www.w3.org/2000/svg">
<path d="M7.33333 22.5C7.02639 22.5 6.7691 22.3962 6.56146 22.1885C6.35382 21.9809 6.25 21.7236 6.25 21.4167C6.25 21.1097 6.35382 20.8524 6.56146 20.6448C6.7691 20.4372 7.02639 20.3333 7.33333 20.3333H24.6667C24.9736 20.3333 25.2309 20.4372 25.4385 20.6448C25.6462 20.8524 25.75 21.1097 25.75 21.4167C25.75 21.7236 25.6462 21.9809 25.4385 22.1885C25.2309 22.3962 24.9736 22.5 24.6667 22.5H7.33333ZM7.33333 17.0833C7.02639 17.0833 6.7691 16.9795 6.56146 16.7719C6.35382 16.5642 6.25 16.3069 6.25 16C6.25 15.6931 6.35382 15.4358 6.56146 15.2281C6.7691 15.0205 7.02639 14.9167 7.33333 14.9167H24.6667C24.9736 14.9167 25.2309 15.0205 25.4385 15.2281C25.6462 15.4358 25.75 15.6931 25.75 16C25.75 16.3069 25.6462 16.5642 25.4385 16.7719C25.2309 16.9795 24.9736 17.0833 24.6667 17.0833H7.33333ZM7.33333 11.6667C7.02639 11.6667 6.7691 11.5628 6.56146 11.3552C6.35382 11.1476 6.25 10.8903 6.25 10.5833C6.25 10.2764 6.35382 10.0191 6.56146 9.81146C6.7691 9.60382 7.02639 9.5 7.33333 9.5H24.6667C24.9736 9.5 25.2309 9.60382 25.4385 9.81146C25.6462 10.0191 25.75 10.2764 25.75 10.5833C25.75 10.8903 25.6462 11.1476 25.4385 11.3552C25.2309 11.5628 24.9736 11.6667 24.6667 11.6667H7.33333Z" fill="black"/>
</svg>
