<svg width="20" height="20" viewBox="0 0 20 20" fill="none" xmlns="http://www.w3.org/2000/svg">
<path d="M9.99935 17.2292C9.8049 17.2292 9.60699 17.1944 9.4056 17.125C9.20421 17.0556 9.02713 16.9444 8.87435 16.7917L7.43685 15.4792C5.96463 14.1319 4.63477 12.7951 3.44727 11.4688C2.25977 10.1424 1.66602 8.68056 1.66602 7.08333C1.66602 5.77778 2.10352 4.6875 2.97852 3.8125C3.85352 2.9375 4.94379 2.5 6.24935 2.5C6.98546 2.5 7.6799 2.65625 8.33268 2.96875C8.98546 3.28125 9.54101 3.70833 9.99935 4.25C10.4577 3.70833 11.0132 3.28125 11.666 2.96875C12.3188 2.65625 13.0132 2.5 13.7493 2.5C15.0549 2.5 16.1452 2.9375 17.0202 3.8125C17.8952 4.6875 18.3327 5.77778 18.3327 7.08333C18.3327 8.68056 17.7424 10.1458 16.5618 11.4792C15.3813 12.8125 14.041 14.1528 12.541 15.5L11.1243 16.7917C10.9716 16.9444 10.7945 17.0556 10.5931 17.125C10.3917 17.1944 10.1938 17.2292 9.99935 17.2292ZM9.20768 5.91667C8.8049 5.34722 8.37435 4.91319 7.91601 4.61458C7.45768 4.31597 6.90213 4.16667 6.24935 4.16667C5.41601 4.16667 4.72157 4.44444 4.16602 5C3.61046 5.55556 3.33268 6.25 3.33268 7.08333C3.33268 7.80556 3.58963 8.57292 4.10352 9.38542C4.6174 10.1979 5.23199 10.9861 5.94726 11.75C6.66254 12.5139 7.39865 13.2292 8.1556 13.8958C8.91254 14.5625 9.52713 15.1111 9.99935 15.5417C10.4716 15.1111 11.0862 14.5625 11.8431 13.8958C12.6 13.2292 13.3362 12.5139 14.0514 11.75C14.7667 10.9861 15.3813 10.1979 15.8952 9.38542C16.4091 8.57292 16.666 7.80556 16.666 7.08333C16.666 6.25 16.3882 5.55556 15.8327 5C15.2771 4.44444 14.5827 4.16667 13.7493 4.16667C13.0966 4.16667 12.541 4.31597 12.0827 4.61458C11.6243 4.91319 11.1938 5.34722 10.791 5.91667C10.6938 6.05556 10.5757 6.15972 10.4368 6.22917C10.298 6.29861 10.1521 6.33333 9.99935 6.33333C9.84657 6.33333 9.70074 6.29861 9.56185 6.22917C9.42296 6.15972 9.3049 6.05556 9.20768 5.91667Z" fill="#DCDCDC"/>
</svg>
