<svg width="20" height="20" viewBox="0 0 20 20" fill="none" xmlns="http://www.w3.org/2000/svg">
<path d="M9.99984 17.2292C9.80539 17.2292 9.60748 17.1944 9.40609 17.125C9.2047 17.0556 9.02762 16.9444 8.87484 16.7917L7.43734 15.4792C5.96512 14.1319 4.63525 12.7951 3.44775 11.4688C2.26025 10.1424 1.6665 8.68056 1.6665 7.08333C1.6665 5.77778 2.104 4.6875 2.979 3.8125C3.854 2.9375 4.94428 2.5 6.24984 2.5C6.98595 2.5 7.68039 2.65625 8.33317 2.96875C8.98595 3.28125 9.5415 3.70833 9.99984 4.25C10.4582 3.70833 11.0137 3.28125 11.6665 2.96875C12.3193 2.65625 13.0137 2.5 13.7498 2.5C15.0554 2.5 16.1457 2.9375 17.0207 3.8125C17.8957 4.6875 18.3332 5.77778 18.3332 7.08333C18.3332 8.68056 17.7429 10.1458 16.5623 11.4792C15.3818 12.8125 14.0415 14.1528 12.5415 15.5L11.1248 16.7917C10.9721 16.9444 10.795 17.0556 10.5936 17.125C10.3922 17.1944 10.1943 17.2292 9.99984 17.2292Z" fill="#007AFF"/>
</svg>
