<svg width="22" height="25" viewBox="0 0 22 25" fill="none" xmlns="http://www.w3.org/2000/svg">
<path d="M6.48094 23.7788C5.1924 23.221 4.06896 22.463 3.11062 21.5047C2.15229 20.5464 1.39427 19.4232 0.836563 18.1353C0.278854 16.8472 0 15.4657 0 13.9909C0 12.5161 0.278854 11.1346 0.836563 9.84625C1.39427 8.55771 2.15229 7.43427 3.11062 6.47594C4.06896 5.5176 5.19219 4.75958 6.48031 4.20188C7.76844 3.64417 9.15 3.36531 10.625 3.36531H10.9569L8.94719 1.35563L10.2644 0L14.5672 4.29094L10.2884 8.58156L8.97125 7.22594L10.9569 5.24031H10.625C8.1875 5.24031 6.11979 6.08927 4.42188 7.78719C2.72396 9.48511 1.875 11.5528 1.875 13.9903C1.875 16.4278 2.72396 18.4955 4.42188 20.1934C6.11979 21.8914 8.1875 22.7403 10.625 22.7403C13.0625 22.7403 15.1302 21.8914 16.8281 20.1934C18.526 18.4955 19.375 16.4278 19.375 13.9903H21.25C21.25 15.4653 20.9711 16.8469 20.4134 18.135C19.8557 19.4231 19.0977 20.5464 18.1394 21.5047C17.181 22.463 16.0579 23.221 14.77 23.7788C13.4819 24.3365 12.1004 24.6153 10.6256 24.6153C9.15083 24.6153 7.76927 24.3365 6.48094 23.7788ZM7.69219 17.5481V16.0575H11.4422V14.5431H7.69219V10.4325H12.9328V11.9231H9.18281V13.4375H11.875C12.1746 13.4375 12.4258 13.5389 12.6287 13.7416C12.8315 13.9443 12.9328 14.1954 12.9328 14.495V16.4903C12.9328 16.7899 12.8315 17.0411 12.6287 17.2441C12.4258 17.4468 12.1746 17.5481 11.875 17.5481H7.69219Z" fill="#282828"/>
</svg>
