<svg width="24" height="24" viewBox="0 0 24 24" fill="none" xmlns="http://www.w3.org/2000/svg">
<path d="M4 19.5C3.71667 19.5 3.47917 19.4042 3.2875 19.2125C3.09583 19.0208 3 18.7833 3 18.5C3 18.2167 3.09583 17.9792 3.2875 17.7875C3.47917 17.5958 3.71667 17.5 4 17.5H20C20.2833 17.5 20.5208 17.5958 20.7125 17.7875C20.9042 17.9792 21 18.2167 21 18.5C21 18.7833 20.9042 19.0208 20.7125 19.2125C20.5208 19.4042 20.2833 19.5 20 19.5H4ZM4 13C3.71667 13 3.47917 12.9042 3.2875 12.7125C3.09583 12.5208 3 12.2833 3 12C3 11.7167 3.09583 11.4792 3.2875 11.2875C3.47917 11.0958 3.71667 11 4 11H20C20.2833 11 20.5208 11.0958 20.7125 11.2875C20.9042 11.4792 21 11.7167 21 12C21 12.2833 20.9042 12.5208 20.7125 12.7125C20.5208 12.9042 20.2833 13 20 13H4ZM4 6.5C3.71667 6.5 3.47917 6.40417 3.2875 6.2125C3.09583 6.02083 3 5.78333 3 5.5C3 5.21667 3.09583 4.97917 3.2875 4.7875C3.47917 4.59583 3.71667 4.5 4 4.5H20C20.2833 4.5 20.5208 4.59583 20.7125 4.7875C20.9042 4.97917 21 5.21667 21 5.5C21 5.78333 20.9042 6.02083 20.7125 6.2125C20.5208 6.40417 20.2833 6.5 20 6.5H4Z" fill="#BEBEBE"/>
</svg>
