<svg width="24" height="24" viewBox="0 0 24 24" fill="none" xmlns="http://www.w3.org/2000/svg">
<path fill-rule="evenodd" clip-rule="evenodd" d="M12.4473 7.91646L11.011 6.32129C9.70072 4.86612 7.32844 4.86612 5.71231 6.32128C4.09618 7.77645 3.84821 10.1357 5.15844 11.5909C5.15844 11.5909 5.15844 11.5909 5.15844 11.5909L5.58164 12.0609L11.3395 18.4557L18.4417 12.0609L18.9637 11.5909C20.5798 10.1357 20.8278 7.77645 19.5175 6.32128C18.2073 4.86612 15.835 4.86611 14.2189 6.32128L12.4473 7.91646ZM11.103 20.7061L3.90882 12.7161C2.03905 10.6395 2.39292 7.27269 4.6992 5.19611C7.00542 3.11958 10.3907 3.11953 12.2605 5.19597C12.2605 5.19602 12.2605 5.19606 12.2606 5.19611L12.6838 5.66611L13.2058 5.19611C15.5121 3.11953 18.8974 3.11953 20.7672 5.19611C22.6369 7.27269 22.2831 10.6395 19.9768 12.7161L11.103 20.7061Z" fill="#999999"/>
</svg>
