<svg width="188" height="220" viewBox="0 0 188 220" fill="none" xmlns="http://www.w3.org/2000/svg">
<g filter="url(#filter0_d_336_1506)">
<path d="M84.2402 19.3625L72.5864 42.2166L61.4452 54.5558L57.1431 70.7416L14.5298 116.094L10 136.953L24.5481 162.841L38.1981 171.118L39.8662 196.964L50.4813 207.436L93.7093 209.542L121.065 200.921L127.262 181.9L122.83 164.703L107.285 159.261L108.509 134.142L134.697 125.464L155.797 113.025L169.787 90.2845L177.95 54.9637L156.092 22.8643L120.415 10.0001L84.2402 19.3625Z" fill="white"/>
</g>
<path d="M69.8881 61.8838C80.0887 55.2821 81.0936 60.7858 81.9147 47.6614C82.1005 44.6825 86.1775 45.9854 87.7167 37.9568C94.0944 31.1965 110.313 23.1252 119.631 21.5955C126.085 24.1916 138.492 26.4855 143.142 30.1275C146.151 32.4859 147.47 36.0618 152.529 38.5446C169.43 57.7241 164.146 88.0413 142.274 99.8867C141.944 100.065 136.732 103.496 136.727 103.502C136.199 105.965 134.686 113.996 132.262 115.24C126.728 118.076 119.708 118.993 113.865 120.956C110.511 122.078 98.7802 128.228 97.6609 131.415C95.0508 138.856 94.545 147.446 94.4289 155.261C94.313 159.097 92.3935 161.258 93.0767 166.541L93.8182 166.693C98.6079 167.611 105.813 166.484 108.378 169.075C108.82 176.388 112.36 172.834 114.383 177.427L114.428 178.656C115.79 181.467 115.051 187.172 114.877 190.592C110.549 193.475 109.201 193.9 105.49 197.568L104.65 197.63C100.74 197.93 98.3788 199.656 94.7973 200.03C80.4337 201.532 68.3847 200.622 55.3705 194.202C52.0277 189.002 48.8076 185.526 49.3664 178.882C49.2452 177.753 49.3414 177.473 49.4434 176.335C53.7671 168.706 68.604 168.183 74.5126 165.856C77.0104 161.793 77.3731 148.269 74.2064 143.975C70.5215 151.267 62.7241 153.813 56.1932 157.872C52.3096 160.286 41.7479 158.944 41.2196 159.332C35.6976 156.641 32.6219 155.406 29.6282 149.629C25.2399 146.29 25.2118 143.925 23.0199 140.228C18.31 132.282 24.0916 134.533 24.8014 129.692C23.666 127.964 23.4382 127.591 22.6736 125.688C24.5379 119.056 59.1157 87.6651 65.767 79.8359C69.5957 75.3291 69.3336 67.936 69.8881 61.8838Z" fill="#009DFE"/>
<path d="M152.529 38.5447C169.431 57.7241 164.146 88.0414 142.274 99.8868C141.945 100.065 136.732 103.496 136.727 103.502C136.199 105.965 134.686 113.996 132.262 115.24C126.729 118.076 119.708 118.994 113.866 120.956C110.511 122.078 98.7804 128.228 97.6611 131.415C95.0511 138.857 94.5453 147.446 94.4291 155.261C94.3132 159.097 92.3937 161.258 93.0769 166.541L93.8184 166.693C98.6081 167.611 105.813 166.484 108.378 169.075C108.82 176.388 112.361 172.834 114.383 177.427L114.428 178.656C115.79 181.467 115.051 187.172 114.878 190.592C110.55 193.475 109.201 193.9 105.49 197.568L104.65 197.63C100.74 197.93 98.379 199.656 94.7975 200.03C80.4339 201.532 68.385 200.622 55.3707 194.202C52.028 189.002 48.8078 185.526 49.3666 178.882C49.2454 177.753 49.3417 177.473 49.4436 176.335C53.7673 168.706 68.6042 168.183 74.5129 165.856C77.0106 161.793 77.3733 148.269 74.2066 143.975C70.5217 151.267 62.7243 153.813 56.1934 157.873C52.3099 160.286 41.7481 158.944 41.2199 159.332C35.6978 156.641 32.6222 155.406 29.6284 149.63C32.0409 149.502 35.7044 152.321 37.7062 152.948C44.5685 155.085 56.6962 140.894 62.4859 137.231C66.631 134.604 71.4498 132.727 75.0704 129.908C78.4918 127.239 79.9837 123.825 84.1386 121.529C90.8709 121.243 86.5818 118.638 92.2409 115.64C94.2021 114.599 96.422 110.355 95.6648 108.206C90.7732 104.875 69.2637 84.7566 71.7664 79.626C72.6181 79.9942 79.4213 87.4472 80.5418 88.8857C86.0497 95.9598 123.597 122.328 128.579 106.194C128.604 106.221 112.31 99.3461 108.991 97.67C101.998 94.1398 78.7969 69.3271 83.8253 61.8508C85.4616 63.3415 90.3488 74.4356 92.9037 77.2671C98.2819 83.0944 108.582 94.4083 116.876 94.3999C117.988 94.3986 130.061 92.6932 130.57 92.4649C141.098 87.7447 150.738 81.2694 155.025 70.1194C159.966 57.2719 156.064 50.6738 151.015 39.0443L152.529 38.5447Z" fill="#005EEA"/>
<path d="M74.2066 143.975C76.9969 142.374 85.9727 138.382 88.9605 138.069C89.4413 144.298 86.0305 161.387 86.7063 171.261C83.3206 177.592 77.9196 172.021 76.0106 174.085C77.381 177.057 82.8967 177.268 86.0643 177.849L90.3924 175.005C95.3637 171.747 93.3296 170.628 93.0769 166.541L93.8184 166.693C98.6081 167.611 105.813 166.484 108.378 169.075C108.82 176.388 112.361 172.834 114.383 177.427L114.428 178.656C115.79 181.467 115.051 187.172 114.878 190.592C110.55 193.475 109.201 193.9 105.49 197.568L104.65 197.63C100.74 197.93 98.379 199.656 94.7975 200.03C80.4339 201.532 68.385 200.622 55.3707 194.202C52.028 189.002 48.8078 185.526 49.3666 178.882C49.2454 177.753 49.3417 177.473 49.4436 176.335C53.7673 168.706 68.6042 168.183 74.5129 165.856C77.0106 161.793 77.3733 148.269 74.2066 143.975Z" fill="#009DFE"/>
<path d="M114.428 178.656C115.79 181.467 115.051 187.172 114.877 190.593C110.549 193.475 109.201 193.9 105.49 197.568L104.65 197.63C100.74 197.93 98.3788 199.656 94.7973 200.03C80.4337 201.532 68.3848 200.622 55.3705 194.202C52.0278 189.002 48.8076 185.526 49.3664 178.882C51.0604 180.237 53.6301 183.772 54.5849 184.529C64.2816 191.459 80.2199 191.771 91.6144 190.518C96.7759 189.956 100.763 188.194 105.691 188.266C108.644 184.884 111.524 182.202 114.428 178.656Z" fill="#005EEA"/>
<path d="M95.4321 179.984C97.4904 180.924 98.1221 181.607 98.196 183.787C96.7777 185.984 96.2014 186.085 93.8026 187.402C92.8376 186.709 92.1334 186.068 91.2427 185.295C90.4154 182.968 90.4152 184.073 91.0049 181.867C93.2324 180.025 92.2296 180.597 95.4321 179.984Z" fill="#005EEA"/>
<path d="M53.3768 97.1218C58.0532 98.7109 61.5059 99.2699 64.0266 103.559C64.8553 108.229 61.3307 111.118 58.0537 113.948C53.0116 118.3 39.2692 130.546 37.8065 116.391C37.4515 112.957 39.2225 110.544 42.4806 109.547C44.753 108.147 45.7846 107.513 47.8092 105.7C50.2976 102.612 51.3023 100.33 53.3768 97.1218Z" fill="#005EEA"/>
<path d="M42.4806 109.547C44.753 108.146 45.7847 107.512 47.8093 105.699L49.2445 107.752L50.907 109.17C50.4808 113.146 43.6392 117.992 40.6015 114.428C41.1239 112.374 41.2639 112.6 43.2543 110.96L42.4806 109.547Z" fill="#009DFE"/>
<path d="M42.4805 109.547C44.7529 108.147 45.7846 107.512 47.8092 105.7L49.2444 107.752C47.2582 108.844 45.2617 109.909 43.2542 110.96L42.4805 109.547Z" fill="#006CF1"/>
<path d="M120.734 30.494C122.639 31.4838 122.957 31.6091 125.035 32.1702C127.782 31.369 133.461 30.2974 134.892 33.4558L133.23 34.0639L133.047 35.4362C133.865 38.0624 134.38 38.4988 136.21 40.5982C137.723 40.8211 138.18 40.7556 139.479 41.5615C138.746 43.8015 136.997 50.3398 134.993 51.2534C133.387 48.9175 135.453 46.8878 133.852 44.0647L132.432 43.9645C130.715 45.481 131.071 50.8555 128.873 52.0729C127.752 50.3341 127.944 47.5021 127.67 45.0084C125.419 45.6291 121.421 46.6437 119.489 47.8411C118.635 48.3697 118.166 49.3278 116.597 50.3181L115.735 49.7078C116.346 45.1436 121.228 45.5876 125.581 42.1544C125.46 39.3407 124.999 37.6561 122.989 35.7371C118.386 33.8609 114.426 37.3242 109.079 38.5656L108.815 37.9013C112.164 33.867 117.967 36.3325 120.734 30.494Z" fill="#005EEA"/>
<path d="M127.485 33.3875C130.416 34.7515 131.704 37.7912 133.256 40.6152L132.619 40.7166L130.122 41.6378C126.917 40.0377 125.99 36.5415 127.485 33.3875Z" fill="#009DFE"/>
<defs>
<filter id="filter0_d_336_1506" x="0" y="0" width="187.95" height="219.542" filterUnits="userSpaceOnUse" color-interpolation-filters="sRGB">
<feFlood flood-opacity="0" result="BackgroundImageFix"/>
<feColorMatrix in="SourceAlpha" type="matrix" values="0 0 0 0 0 0 0 0 0 0 0 0 0 0 0 0 0 0 127 0" result="hardAlpha"/>
<feOffset/>
<feGaussianBlur stdDeviation="5"/>
<feComposite in2="hardAlpha" operator="out"/>
<feColorMatrix type="matrix" values="0 0 0 0 0 0 0 0 0 0 0 0 0 0 0 0 0 0 0.15 0"/>
<feBlend mode="normal" in2="BackgroundImageFix" result="effect1_dropShadow_336_1506"/>
<feBlend mode="normal" in="SourceGraphic" in2="effect1_dropShadow_336_1506" result="shape"/>
</filter>
</defs>
</svg>
