<svg width="195" height="195" viewBox="0 0 195 195" fill="none" xmlns="http://www.w3.org/2000/svg">
<path d="M111.637 25.4927C113.484 26.7455 120.071 29.8023 120.523 30.7991C125.982 42.7851 131.038 58.198 141.465 67.2122C149.085 71.5846 159.613 75.6004 167.909 78.4944C176.911 81.6378 192.779 78.5849 181.258 94.2046C154.202 98.5461 136.689 117.452 122.122 139.248C117.529 146.128 118.98 153.549 108.911 152.782C108.599 152.544 107.048 151.16 107.016 150.898C104.562 130.934 95.7688 123.776 83.1799 109.906C73.3199 99.1412 59.64 92.6518 45.0671 91.8212C43.7181 89.378 42.5245 86.5365 43.3464 83.8167C49.3757 80.2736 51.0018 82.5938 56.8887 81.7023C59.8778 80.7989 63.2284 79.094 66.2288 78.3833C83.8326 74.2222 98.4104 62.3122 104.245 44.9444C105.274 41.8772 107.362 37.8427 106.836 34.9682C105.866 29.6922 105.755 28.3307 111.637 25.4927Z" fill="#009DFE"/>
<path d="M60.6318 116.318L62.1751 117.069C63.6662 119.33 61.698 127.151 62.7129 129.153C67.9074 139.402 72.1874 139.055 79.541 142.758C80.2774 144.458 80.4544 144.706 80.6358 146.623C77.6249 150.349 66.1786 155.372 63.8598 158.2C63.0911 159.141 60.767 169.386 57.7099 172.178C55.5895 172.257 56.5559 172.526 54.7545 171.203C52.5423 166.735 56.3106 165.562 50.5171 160.511L49.8895 159.967C50.1748 158.947 50.3891 158.105 50.6171 157.071C49.1642 156.076 48.8404 155.9 47.6185 154.533C47.7886 153.622 47.8731 153.288 48.1578 152.376L48.4036 151.602C46.0762 147.263 36.9482 148.248 35.1685 143.873C37.1065 139.529 44.109 139.628 48.0184 139.528C54.6236 132.512 53.8629 129.325 56.7852 120.398C58.727 119.104 58.9515 118.772 60.2918 116.824L60.6318 116.318Z" fill="#009DFE"/>
<path d="M155.104 13.0056C156.53 12.8936 160.177 14.4886 161.699 15.042C168.753 17.6023 172.566 23.5916 169.37 30.7831C166.092 38.1471 163.182 37.3728 157.217 40.3649L156.46 40.7495C142.925 44.0594 127.735 21.4763 155.104 13.0056Z" fill="#FEB0CF"/>
<path d="M21.662 48.2158C25.8128 49.1442 27.2197 53.5499 29.7599 55.1258C32.7648 56.989 38.0551 57.7282 41.1364 60.2415L41.2573 61.6634C39.4938 64.5555 34.4391 68.327 31.587 70.6588C31.1223 74.194 31.3897 78.7946 28.2638 80.5756C23.0944 74.0457 21.3309 70.9383 13.9779 67.0713C12.0553 67.6896 11.8389 67.8239 9.8526 67.8029C8.00639 66.2454 8.26738 66.9446 8 65.0299C9.64886 62.7484 13.6469 61.3011 16.4162 59.9887C20.0068 54.6502 16.6136 53.3308 21.662 48.2158Z" fill="#FEB0CF"/>
<path d="M92.5616 165.196C100.443 164.934 108.178 176.709 99.9974 182.443C98.1512 182.314 97.591 182.327 95.8084 182.79L95.0317 183C88.6464 181.486 87.0485 178.499 87.0803 171.257C87.0994 165.673 89.7286 167.536 92.5616 165.196Z" fill="#FEB0CF"/>
<path d="M172.386 51.7368C173.456 52.229 174.831 52.9193 175.295 54.0438C176.613 57.2091 179.02 57.7197 181.235 60.4616C180.656 62.5521 177.352 62.6393 175.595 64.3884C175.595 64.3897 173.85 67.6359 173.729 67.8562L171.291 67.3207C169.005 64.631 166.784 63.588 165.307 60.5425C165.848 57.919 169.738 58.2979 172.061 52.548L172.386 51.7368Z" fill="#FEB0CF"/>
<path d="M38.6508 119.629C37.9935 119.33 37.1485 118.911 36.8629 118.228C36.053 116.306 34.5741 115.996 33.2126 114.331C33.5686 113.061 35.5992 113.008 36.679 111.946C36.679 111.945 37.751 109.974 37.8253 109.84L39.3238 110.165C40.7283 111.799 42.0938 112.432 43.0015 114.281C42.6689 115.875 40.2784 115.645 38.8504 119.136L38.6508 119.629Z" fill="#FEB0CF"/>
</svg>
