<svg width="240" height="240" viewBox="0 0 240 240" fill="none" xmlns="http://www.w3.org/2000/svg">
<path d="M34.6805 38.365C44.9056 31.6021 48.8817 26.7786 61.4922 19.4618C70.6027 20.3173 69.5071 14.9778 81.8312 17.3401C93.162 19.5119 110.826 26.5222 116.91 36.7402C122.019 45.3191 122.097 49.0016 128.34 57.279C126.979 62.0656 126.563 66.9658 125.781 71.8644C125.879 71.2463 123.17 75.2243 123.014 75.5287C124.752 76.2069 196.142 81.2145 198.771 80.2403C200.406 79.76 202.662 78.6101 203.815 79.9029C211.485 88.5016 209.948 105.631 210.074 116.715C210.095 118.476 212.025 120.658 212.425 122.422C209.62 127.752 210.704 129.905 212.881 135.275C213.977 137.976 211.038 141.251 211.064 144.026C211.062 145.045 213.716 149.466 214.259 150.635C211.985 155.877 211.144 154.215 212.505 160.463C208.858 165.609 206.059 179.021 205.537 185.064C189.889 204.348 172.368 218.32 146.654 222.411C145.236 222.636 143.882 222.363 142.489 222.105C142.096 221.773 111.101 220.136 108.247 220.069C106.791 218.903 106.076 218.136 104.267 217.623L101.873 219.032C93.4214 217.634 70.5379 205.926 68.8555 196.603C70.3039 190.777 74.5671 191.682 76.442 189.141C88.3463 173.008 90.0248 147.116 89.9571 127.77C89.9287 119.437 89.5421 114.859 90.3769 108.061C86.9999 110.388 87.2131 110.465 83.0229 110.487C76.9506 110.519 73.964 113.922 69.3186 109.326C63.5311 108.104 58.6958 105.673 53.0029 104.282C53.0029 104.282 50.5304 105.261 50.2948 105.354L48.9369 104.668C46.1043 97.4179 41.405 99.536 36.1094 93.7443C34.4645 92.6892 36.4863 90.4631 36.3219 90.2283C26.0342 75.5862 26.4802 54.4567 34.6805 38.365Z" fill="#009DFE"/>
<path d="M116.432 90.5148C136.954 93.5989 157.282 93.3412 177.718 97.2445C181.654 97.9967 184.964 93.6735 189.825 97.3802C195.895 107.093 194.115 166.924 187.676 173.813C182.401 176.092 170.972 177.481 164.929 178.049C164.682 177.852 162.247 175.907 162.247 175.907C155.519 175.674 149.026 174.147 142.382 173.411C141.544 173.949 140.491 174.626 139.22 175.443C132.132 174.997 124.918 174.046 117.98 172.461C112.954 171.314 105.991 170.061 102.523 166.011C101.557 164.883 103.649 162.727 104.382 161.879C104.959 159.781 103.646 152.011 103.408 149.156C102.629 139.854 104.262 113.274 100.611 105.753C106.712 100.794 109.783 91.6988 116.432 90.5148Z" fill="#005EEA"/>
<path d="M34.6805 38.365C44.9056 31.6021 48.8817 26.7786 61.4922 19.4618C70.6027 20.3173 69.5071 14.9778 81.8312 17.3401C93.162 19.5119 110.826 26.5222 116.91 36.7402C122.019 45.3191 122.097 49.0016 128.34 57.279C126.979 62.0656 126.563 66.9658 125.781 71.8644C125.879 71.2463 123.17 75.2243 123.014 75.5287C123.477 80.6737 119.312 85.7113 116.432 90.515C109.783 91.6989 106.712 100.794 100.611 105.753C95.8985 106.265 94.7525 106.31 90.3769 108.061C86.9999 110.388 87.2131 110.465 83.0229 110.487C76.9506 110.519 73.964 113.922 69.3186 109.326C63.531 108.104 58.6958 105.673 53.0029 104.282C53.0029 104.282 50.5304 105.261 50.2948 105.354L48.9369 104.668C46.1043 97.4179 41.405 99.536 36.1094 93.7443C34.4645 92.6892 36.4862 90.4631 36.3219 90.2283C26.0342 75.5862 26.4802 54.4567 34.6805 38.365Z" fill="#FEB0CF"/>
<path d="M75.9814 31.3819C88.5341 35.2899 79.8741 51.5813 80.7775 58.9735C81.4407 64.4002 100.32 54.4877 103.58 64.3953C100.458 71.6637 89.0489 69.5721 82.6088 69.0094C82.4748 74.3641 81.8419 89.6322 78.6617 93.4643C76.1687 94.0544 77.2233 94.1418 74.5565 92.5701C67.5081 82.3413 75.4318 75.0413 72.1844 69.5553C67.7897 68.8991 63.088 68.5419 58.7741 67.8205C55.5107 67.2756 49.6435 68.0304 47.7934 66.66C48.7736 62.8417 55.7011 58.2225 59.4288 58.1582C63.0477 58.0966 69.0146 63.1941 73.5949 61.2434C73.6131 55.438 74.3659 36.3458 75.9814 31.3819Z" fill="#009DFE"/>
<path d="M198.771 80.24C200.406 79.7598 202.662 78.6098 203.815 79.9026C211.485 88.5014 209.948 105.631 210.074 116.715C210.095 118.475 212.025 120.657 212.425 122.422C209.62 127.752 210.704 129.905 212.881 135.275C213.977 137.976 211.038 141.25 211.064 144.025C211.062 145.045 213.716 149.465 214.259 150.634C211.985 155.877 211.144 154.215 212.505 160.462C208.858 165.608 206.059 179.021 205.537 185.063C189.889 204.348 172.368 218.32 146.654 222.411C145.235 222.636 143.882 222.363 142.489 222.105C156.527 210.239 155.058 209.725 162.094 193.114C163.115 190.707 176.052 191.8 180.172 191.361C196.694 189.602 193.938 187.839 202.7 176.877C202.816 167.127 204.941 162.01 205.514 152.482C205.89 146.218 203.17 138.811 203.858 133.01C203.989 132.493 204.923 130.325 204.814 129.86C202.601 120.38 205.299 109.612 204.004 100.472C202.973 93.2046 197.221 88.7356 198.771 80.24Z" fill="#005EEA"/>
</svg>
