<svg width="153" height="255" viewBox="0 0 153 255" fill="none" xmlns="http://www.w3.org/2000/svg">
<g filter="url(#filter0_d_231_1203)">
<path d="M27.0595 47.1025L56.22 16.2945L86.4097 12.3076L108.709 19.919L117.972 47.1025L123.804 69.9367L130.322 76.0983L140.271 97.1202L133.067 115.967L117.972 158.736L103.906 177.221L123.804 197.518L127.234 225.789L91.2126 242.461H56.5631L32.8916 225.789V204.405L53.1325 185.195V177.221L32.8916 162.361L27.0595 129.74L12.3077 110.531V90.2337L21.5705 74.6485L27.0595 47.1025Z" fill="white"/>
<path d="M44.4926 63.9812C46.2972 61.0832 48.0198 58.1298 49.6607 55.1238C52.4502 50.1059 61.8269 35.9168 67.1163 34.6611C68.266 34.3872 69.4237 34.1344 70.584 33.9028L71.2036 32.0079C75.1666 28.7727 85.5631 35.9701 90.5449 34.3509C93.8348 34.0769 97.2573 41.4093 98.9732 43.2747C102.586 47.2151 104.154 46.4823 104.792 51.9622C109.702 53.5244 108.26 53.2919 107.216 58.1149C106.454 61.6285 109.176 64.0282 109.382 66.9215C109.668 70.8762 109.304 74.9633 110.103 78.9359C110.99 84.0286 109.918 82.7765 113.862 85.804C121.487 89.7033 120.385 88.424 122.414 97.7419C121.389 100.198 117.971 105.973 118 107.192L118.677 108.779L118.305 109.439C115.838 109.93 116.023 109.462 114.575 111.003C113.781 114.027 113.642 119.444 113.551 122.502C113.168 135.474 111.956 141.75 105.289 152.394C103.421 155.384 102.983 158.601 99.4915 160.805C97.5833 162.007 94.589 163.122 93.4527 164.881L93.7574 166.771C89.9721 170.672 83.2817 164.371 86.0841 178.957C86.625 181.774 87.899 194.399 87.2584 196.344C89.962 198.372 89.793 198.397 92.8979 196.643C97.6558 196.68 103.921 204.44 107.338 207.077C108.807 210.587 109.79 214.781 107.484 218.289C105.286 221.624 104.688 228.128 99.226 225.66C99.448 225.761 90.8821 227.667 89.9525 227.938C80.6777 230.649 72.2929 227.267 63.1512 226.954C60.6346 226.865 59.9245 227.615 57.3408 226.309L57.3066 224.964C56.7855 224.391 50.1424 221.271 47.73 219.294C49.1202 216.482 49.423 213.084 49.9812 209.884C51.225 206.309 51.5926 204.863 52.3001 201.122C60.6957 197.236 64.0311 197.958 72.9691 196.549C72.9364 194.906 72.3539 192.897 72.3819 192.198C72.6702 185.179 71.0937 174.625 71.9038 168.185L72.0061 167.433L69.9844 167.389L69.5614 166.784C69.2896 166.804 62.9001 166.704 63.1959 166.882C56.3616 162.763 49.5464 154.946 45.916 147.628C46.5878 142.706 46.6504 143.355 44.2004 139.029C42.5935 136.201 40.6824 117.439 40.798 114.669C38.8494 110.134 39.5849 111.364 34.8856 108.931C25.7562 104.952 30.7478 98.9382 32.7188 91.9617C32.7188 91.9617 32.199 89.7609 32.1446 89.5342C34.6624 85.6452 37.7072 89.3325 40.8258 85.8309C42.2276 78.9934 44.7004 70.6125 44.4926 63.9812Z" fill="#009DFE"/>
<path d="M44.4926 63.9812C46.2972 61.0832 48.0198 58.1298 49.6607 55.1238C52.4502 50.1059 61.8269 35.9168 67.1163 34.6611C68.266 34.3872 69.4237 34.1344 70.584 33.9028L71.2036 32.0079C75.1666 28.7727 85.5631 35.9701 90.5449 34.3509C93.8348 34.0769 97.2573 41.4093 98.9732 43.2747C102.586 47.2151 104.154 46.4823 104.792 51.9622C109.702 53.5244 108.26 53.2919 107.216 58.1149C106.454 61.6285 109.176 64.0282 109.382 66.9215C109.668 70.8762 109.304 74.9633 110.103 78.9359C110.99 84.0286 109.918 82.7765 113.862 85.804C113.436 89.03 118.368 93.2935 113.349 98.6368C100.782 112.02 81.3412 110.893 64.8535 112.701C57.3918 113.514 39.2183 106.703 34.8856 108.931C25.7562 104.952 30.7478 98.9382 32.7188 91.9617C32.7188 91.9617 32.199 89.7609 32.1446 89.5342C34.6624 85.6452 37.7072 89.3325 40.8258 85.8309C42.2276 78.9934 44.7004 70.6125 44.4926 63.9812Z" fill="#009DFE"/>
<path d="M42.7878 80.113L45.4815 80.1107C46.7708 81.4742 48.2211 82.6136 49.3889 84.1283C51.5848 86.9799 55.2899 94.5144 58.8966 95.2111C69.1217 97.1854 79.7636 99.0049 90.1264 97.3728C94.3264 96.7113 101.574 93.8244 105.203 93.8613L105.901 94.6969L105.69 96.0552L104.118 96.9306C86.8585 105.627 60.6375 102.645 44.0016 93.3949C43.4582 92.1957 42.9863 82.192 42.7878 80.113Z" fill="#005EEA"/>
<path d="M81.659 39.6463C87.1144 39.8029 84.2134 44.1677 93.0337 44.181C94.6439 45.3084 94.8872 45.3635 95.8711 47.0468L95.4894 47.9333L93.8058 48.2835C92.6221 47.4801 92.0044 46.9103 90.6005 46.6851L90.1651 47.2617C92.4659 48.8962 90.5106 49.8878 93.329 51.3119C95.7969 50.8219 96.8026 50.114 98.248 52.3207L97.8316 53.276C96.4826 53.5031 95.5306 53.7235 94.2064 54.0665C92.7759 56.3246 95.1888 55.8256 94.0567 58.3268L92.2057 58.5389L91.3711 57.8206C91.3761 56.2665 91.4001 55.9768 91.1272 54.3927C89.2782 53.6902 88.8282 54.8115 86.6266 54.7926C85.6422 56.2073 87.5562 57.6674 87.1232 61.0121C85.9829 62.4269 86.6709 61.9371 84.964 62.4938C84.7488 60.1001 84.8657 57.7409 82.9167 56.3026C81.4211 56.8722 81.2539 56.9568 79.7062 57.1863C78.0744 56.5011 78.6985 57.0359 77.7042 55.6216C78.3759 54.4215 80.0721 53.7769 81.4256 53.01L81.2331 52.1326C76.3876 46.8988 76.1254 53.8223 70.5969 52.4874L70.7491 51.5708C72.4988 49.6825 75.3196 48.955 77.7407 48.0793C76.0876 46.7315 74.9267 46.0716 74.1295 44.0658L74.5926 43.4514C76.876 43.8785 78.1045 45.5832 79.8524 47.358C81.9316 46.457 84.3106 45.8103 86.4881 45.1437C84.6053 43.4981 82.5233 42.0271 81.659 39.6463Z" fill="#005EEA"/>
<path d="M85.1222 47.5372C86.3243 47.4289 86.3739 47.4387 87.5698 47.633C89.1417 49.2872 88.8792 48.5415 89.1739 50.571C88.4409 52.5516 88.912 51.8696 86.5974 53.0019C84.271 53.2398 82.2257 52.0275 81.7025 49.5766C82.6748 47.7522 82.4756 48.3264 85.1222 47.5372Z" fill="#009DFE"/>
<path d="M72.0059 167.433C75.9432 166.911 75.0704 169.112 81.1663 168.476C81.7921 173.411 83.0732 198.059 80.7653 201.373C80.1558 202.244 79.2537 202.831 78.2398 202.939C75.9837 203.18 74.2261 201.104 72.0296 201.614C71.0858 203.187 71.1779 203.148 71.1467 205.062C74.0331 209.926 83.3013 204.37 86.6128 201.969C87.8927 199.401 86.2436 198.307 87.2582 196.344C89.9618 198.372 89.7928 198.397 92.8977 196.643C97.6556 196.68 103.921 204.44 107.338 207.077C108.807 210.587 109.789 214.781 107.483 218.289C105.286 221.624 104.688 228.128 99.2258 225.66C99.4478 225.761 90.8819 227.667 89.9522 227.937C80.6775 230.649 72.2927 227.267 63.151 226.954C60.6344 226.865 59.9242 227.615 57.3406 226.309L57.3064 224.963C56.7853 224.391 50.1422 221.271 47.7298 219.294C49.12 216.481 49.4228 213.084 49.9809 209.884C51.2248 206.309 51.5924 204.863 52.2999 201.122C60.6954 197.236 64.0309 197.958 72.9689 196.549C72.9362 194.905 72.3536 192.897 72.3817 192.197C72.67 185.179 71.0935 174.625 71.9036 168.185L72.0059 167.433Z" fill="#009DFE"/>
<path d="M47.7296 219.294C49.1198 216.481 49.4226 213.084 49.9807 209.884C68.2891 219.801 72.9434 218.23 93.5862 215.302C97.6989 214.719 100.14 208.953 104.299 208.58C105.012 208.516 106.67 207.513 107.338 207.077C108.807 210.587 109.789 214.78 107.483 218.288C105.285 221.624 104.687 228.128 99.2256 225.66C99.4476 225.761 90.8817 227.667 89.952 227.937C80.6773 230.649 72.2925 227.267 63.1508 226.954C60.6342 226.865 59.924 227.615 57.3404 226.309L57.3062 224.963C56.7851 224.391 50.1419 221.271 47.7296 219.294Z" fill="#005EEA"/>
<path d="M113.861 85.8042C121.486 89.7035 120.384 88.4242 122.413 97.7421C121.388 100.199 117.97 105.973 118 107.192L118.676 108.78L118.305 109.44C115.837 109.93 116.022 109.462 114.575 111.003C113.78 114.028 113.642 119.444 113.55 122.502C113.167 135.474 111.955 141.75 105.289 152.394C103.42 155.385 102.982 158.602 99.491 160.805C97.5828 162.007 94.5885 163.122 93.4522 164.881L93.7569 166.771C89.9716 170.672 83.2812 164.371 86.0836 178.957C86.6245 181.774 87.8985 194.4 87.258 196.344C86.2434 198.308 87.8925 199.401 86.6125 201.97C83.301 204.37 74.0328 209.926 71.1465 205.062C71.1777 203.148 71.0855 203.187 72.0293 201.615C74.2259 201.105 75.9834 203.18 78.2395 202.94C79.2534 202.831 80.1555 202.244 80.765 201.374C83.0729 198.059 81.7918 173.411 81.1661 168.476C75.0702 169.112 75.943 166.911 72.0057 167.433L69.9839 167.39C71.3717 163.583 78.3878 165.344 81.5801 164.71C93.5202 162.338 100.034 146.003 100.715 134.604C100.901 131.479 95.216 124.425 93.0247 122.364C76.1211 123.447 60.5527 118.784 44.5282 114.262C44.4894 114.252 43.0823 112.45 42.1618 112.043L40.7975 114.67C38.849 110.134 39.5844 111.364 34.8852 108.931C39.2178 106.704 57.3913 113.515 64.853 112.701C81.3407 110.893 100.782 112.02 113.348 98.637C118.367 93.2937 113.435 89.0302 113.861 85.8042Z" fill="#005EEA"/>
<path d="M51.9268 132.999C55.1703 133.229 57.1804 132.911 60.429 132.519C61.7505 133.217 66.8943 135.857 67.1378 136.623C67.9421 139.174 67.8915 151.651 67.9918 154.428L67.3736 154.961C67.2627 155.022 66.5302 155.455 66.3802 155.504C54.2589 159.484 55.8543 153.843 55.43 144.365C55.3227 141.929 52.6176 135.235 51.9268 132.999Z" fill="#005EEA"/>
<path d="M60.6155 144.869C61.0816 145.032 61.2716 145.312 61.6885 145.69C62.8667 149.328 63.1452 151.889 59.7774 153.914C58.7387 153.287 58.2265 152.832 57.28 152.078C55.9413 148.18 57.4386 146.561 60.6155 144.869Z" fill="#009DFE"/>
<path d="M70.5783 138.169C70.9668 138.357 71.4622 138.762 71.834 139.034C72.0783 141.358 72.3064 149.086 72.2264 151.307C70.7614 150.888 71.3563 151.271 70.3204 150.223C69.7158 146.836 69.0178 141.262 70.5783 138.169Z" fill="#005EEA"/>
</g>
<defs>
<filter id="filter0_d_231_1203" x="4.673e-05" y="-7.53403e-05" width="152.579" height="254.769" filterUnits="userSpaceOnUse" color-interpolation-filters="sRGB">
<feFlood flood-opacity="0" result="BackgroundImageFix"/>
<feColorMatrix in="SourceAlpha" type="matrix" values="0 0 0 0 0 0 0 0 0 0 0 0 0 0 0 0 0 0 127 0" result="hardAlpha"/>
<feOffset/>
<feGaussianBlur stdDeviation="6.15385"/>
<feComposite in2="hardAlpha" operator="out"/>
<feColorMatrix type="matrix" values="0 0 0 0 0 0 0 0 0 0 0 0 0 0 0 0 0 0 0.1 0"/>
<feBlend mode="normal" in2="BackgroundImageFix" result="effect1_dropShadow_231_1203"/>
<feBlend mode="normal" in="SourceGraphic" in2="effect1_dropShadow_231_1203" result="shape"/>
</filter>
</defs>
</svg>
