<svg width="240" height="240" viewBox="0 0 240 240" fill="none" xmlns="http://www.w3.org/2000/svg">
<path d="M64.4063 91.9586C66.0332 92.062 67.1326 93.2859 68.9251 92.0868L68.9245 92.0828C68.8659 91.7027 68.6815 90.5071 68.7954 90.2158C70.62 85.5527 72.327 88.7462 74.46 87.4224C74.5078 83.3297 76.2033 84.3773 78.103 81.0597C78.6453 80.1159 78.0049 78.2245 79.0499 76.9721L80.4636 77.0152C82.0299 75.0937 79.0743 75.0198 83.3369 71.9518C83.267 71.0909 83.204 70.2287 83.1513 69.3663C84.2113 67.4602 88.8342 64.7864 89.6552 63.6038C92.0112 60.2134 92.4519 56.1456 96.549 53.6858C97.5408 53.0888 98.3625 52.9167 99.5086 53.2254C100.539 53.5026 101.706 54.488 102.066 55.4546C103.004 57.9917 104.401 58.0542 106.352 59.6136C107.056 60.1755 108.25 61.9709 108.837 62.8284C109.902 65.1835 116.022 64.5229 117.85 65.0237C119.681 65.5244 121.911 70.0925 123.595 70.5208L123.859 70.3973C124.882 69.9252 124.96 69.8743 126.05 69.7251C130.004 66.5298 134.274 64.7437 139.021 63.0347C140.659 62.4459 140.31 61.2791 142.037 60.9263C143.524 61.5386 143.196 62.2983 143.538 62.3871C145.32 62.8501 146.433 62.5368 147.974 63.7859C148.266 64.7968 147.657 67.0914 148.493 68.763C148.734 69.2479 148.543 73.5855 148.368 74.0727L148.49 74.2388C149.444 75.2104 149.463 75.5554 149.649 76.8946C155.789 82.3664 158.91 81.9901 166.645 82.1754L166.867 82.7545C165.273 85.3828 167.869 88.0159 170.05 89.4813C171.96 90.765 176.752 91.8387 177.762 93.9518C177.148 95.7986 176.684 95.9774 178.202 97.4117C179.701 97.2468 189.308 124.344 190.574 123.636C191.107 122.713 191.065 122.414 191.153 121.369C191.659 120.759 191.803 120.555 192.411 120.03C192.669 118.651 192.757 117.327 192.355 115.954C193.926 114.624 196.369 109.298 196.703 109.195C203.9 106.997 204.172 100.223 212.14 98.7775C212.511 99.1745 212.867 99.5378 213.323 99.8383C215.919 98.151 216.531 94.0258 219.096 93.1579C219.75 93.3715 220.401 93.5967 221.046 93.8334C222.98 92.7371 225.813 90.9686 228.057 91.7211C230.468 92.5293 230.242 95.0271 232.341 96.1332C232.87 96.492 233.576 96.5022 234.313 96.4312C234.274 95.7945 234.115 95.0834 233.797 94.2595C232.974 93.9786 233.229 94.1768 232.683 93.5654C232.824 92.709 235.293 90.0778 236.025 89.2303C235.765 87.71 235.707 86.7542 235.746 86.0976C234.827 84.1354 233.924 82.42 233.261 81.4313L232.214 80.8413C232.275 80.2522 232.675 80.5588 233.261 81.4313L236.277 83.1325C236.425 84.6582 235.834 84.6021 235.746 86.0976C238.292 91.5354 240.959 98.8688 239 97.8841C238.505 97.6363 238.117 97.3804 237.813 96.9095C237.159 95.8878 235.682 96.2994 234.313 96.4312C234.459 98.8289 232.9 100.172 231.71 102.514C231.029 103.855 231.745 106.972 230.466 108.449C229.514 110.113 227.59 110.33 227.239 111.721L227.447 112.411C226.457 113.771 224.055 114.886 223.829 115.418C221.119 121.751 223.292 125.978 220.187 132.183C218.253 132.458 216.121 132.715 214.233 133.13C214.559 133.668 214.935 134.289 215.362 134.991C217.812 136.086 217.336 136.361 216.961 138.986C216.927 139.226 216.643 139.529 216.432 139.753L216.404 139.782C214.592 140.167 213.697 139.765 213.497 141.933C212.868 148.764 211.044 145.898 208.823 147.731C208.178 149.99 212.382 154.807 208.146 156.693C205.002 158.093 205.165 156.998 201.968 159.499C202.89 160.546 203.02 160.333 203.088 161.424C201.505 162.932 200.234 168.214 198.351 170.114C197.206 171.264 195.73 170.377 194.874 172.814C193.302 178.578 194.146 180.977 187.839 184.191C187.041 185.572 185.944 187.807 185.131 188.785C183.251 191.047 175.272 193.321 175.831 196.57C176.034 197.738 175.245 198.824 174.263 199.653C172.88 199.313 173.05 198.062 171.784 198.507C170.824 198.843 167.805 202.087 167.318 202.21C163.803 203.089 164.168 202.535 161.26 204.943C161.047 205.608 160.665 207.978 160.164 208.189C159.03 208.658 157.589 209.62 156.389 209.661C156.231 208.578 156.203 208.152 155.824 207.14L155.35 207.065C153.616 208.688 155.703 209.983 150.562 210.52C149.984 210.58 148.461 213.811 146.864 214.364L143.999 213.2C137.35 216.055 138.675 215.307 131.389 214.581C128.149 217.3 127.577 218.442 123.818 216.22C120.424 217.217 120.099 220.079 117.106 218.042C116.735 217.795 113.545 219.745 112.54 220.214C111.802 219.011 111.114 217.465 109.919 216.974C108.509 216.954 106.347 218.351 104.411 218.947C102.51 217.456 99.2398 214.913 96.8823 214.461C94.2791 215.862 93.3338 214.549 90.4781 214.304C89.6159 214.103 87.8389 214.39 87.0995 214.106C83.3926 212.706 82.5822 211.656 78.6766 212.881C80.0336 212.455 69.7723 211.141 69.4311 211.097C66.5182 207.42 60.4726 208.007 57.4953 205.234C52.1062 200.524 41.9293 186.587 39.5952 174.049C35.8344 153.847 38.374 151.157 43.5837 125.479C46.8137 116.082 49.0717 114.214 52.8646 108.582L54.2497 106.489C52.9418 105.957 45.1749 106.554 44.8164 102.871C47.299 100.247 54.0777 102.21 56.9098 103.465C58.7416 100.354 60.2851 100.03 62.7679 97.2739C64.126 96.7553 63.7335 97.5843 65.0625 96.3089C65.5308 95.0375 64.813 93.3819 64.4063 91.9586Z" fill="#FE8400"/>
<path d="M108.837 62.8282C109.902 65.1833 116.022 64.5227 117.849 65.0235C119.681 65.5242 121.911 70.0923 123.595 70.5206L123.859 70.3971C124.881 69.925 124.96 69.8741 126.05 69.7248C126.075 70.0308 126.105 70.4022 126.143 70.8397C123.945 74.4313 121.609 76.9669 119.729 80.7888C121.686 83.1561 120.574 86.4289 118.296 86.971C115.208 87.7068 109.108 91.2893 106.636 91.6838C103.854 91.1769 103.425 88.9789 101.667 87.2277C100.343 85.9097 97.7896 87.222 95.77 85.6995C91.7273 82.6506 95.2098 77.7968 97.2847 74.83C97.2109 74.3736 96.9677 72.9642 97.1155 72.6245C98.1145 70.3592 101.249 66.3011 103.188 65.0157C104.666 64.7111 105.298 64.8596 106.163 63.9085L106.724 63.437C107.782 63.2463 107.858 63.2437 108.837 62.8282Z" fill="#B8B7BE"/>
<path d="M95.837 78.5986C96.9507 81.2445 96.3878 83.04 100.395 83.9617C101.551 84.2282 101.625 84.7234 102.075 85.6215C96.5054 86.3823 94.01 84.0075 95.837 78.5986Z" fill="#FE8400"/>
<path d="M148.49 74.2387C148.126 77.0798 148.974 80.4669 148.58 83.6118C148.382 85.173 147.635 87.9188 148.236 89.0606C148.531 89.6237 148.575 89.7302 148.496 90.4466C147.677 91.5788 145.777 93.2142 144.503 93.7543C143.279 93.3747 143.043 93.3923 142.226 92.4864C141.539 89.2793 144.83 82.0123 145.129 79.0899C145.695 73.495 143.729 70.3519 145.665 64.5873C146.372 67.4773 147.398 70.2568 147.583 73.2149L147.596 73.4583L148.368 74.0727L148.49 74.2387Z" fill="#FF4600"/>
<path d="M54.2497 106.489C52.9418 105.957 45.1749 106.554 44.8164 102.871C47.299 100.247 54.0777 102.21 56.9098 103.465C57.9559 104.361 58.5504 104.681 58.9542 105.989C58.7512 107.323 59.0217 106.753 58.085 107.749C56.4232 108.343 55.1727 108.019 54.2497 106.489Z" fill="#FF4600"/>
<path d="M103.189 65.0155C102.079 63.0827 101.033 60.9298 99.6639 59.2013C98.9007 58.2388 98.4856 58.2938 98.8644 57.0534L99.5777 56.7042C102.089 57.0468 104.115 62.3434 106.163 63.9083C105.299 64.8594 104.667 64.7109 103.189 65.0155Z" fill="#FF4600"/>
<path d="M180.585 99.8622C184.202 101.705 185.03 103.615 186.792 107.068C188.448 110.311 190.399 113.38 191.048 117.038C191.734 121.164 192.284 125.998 192.66 130.121C192.817 131.818 189.792 132.464 192.776 135.771C192.765 135.761 192.028 141.294 192.025 142.584L192.028 143.115C191.479 144.49 191.364 145.446 189.795 145.164C187.862 143.383 186.795 131.82 186.875 129.191C187 124.977 180.16 101.491 180.585 99.8622Z" fill="#FF4600"/>
<path d="M82.4146 109.241C78.9744 105.577 78.6065 102.357 83.7988 100.112C86.8036 98.8122 88.4615 102.826 91.5467 101.967C93.0041 101.395 94.5262 102.028 96.3048 101.951C96.9363 102.225 97.3573 102.405 98.0188 102.627C98.4083 102.797 100.518 103.766 100.848 103.762C102.411 105.92 103.909 105.586 106.494 106.366C110.965 111.004 109.574 115.413 103.322 115.92C99.872 116.201 98.7619 112.582 98.5428 110.045C99.1547 109.106 99.6975 108.321 100.182 107.299C99.7208 106.178 98.8932 106.258 97.964 105.178C96.7576 106.077 96.2626 106.689 94.8973 106.781C93.6667 105.724 94.0933 105.567 93.381 104.276L93.1521 103.866L92.8033 103.794C86.6299 102.585 92.8535 111.424 82.4146 109.241Z" fill="#8B9CA4"/>
<path d="M93.1524 103.866C94.8273 103.805 96.4623 104.514 97.9643 105.178C96.7578 106.077 96.2628 106.689 94.8975 106.781C93.667 105.725 94.0935 105.567 93.3812 104.276L93.1524 103.866Z" fill="#411D17"/>
<path d="M83.7131 101.826C85.9747 102.187 87.3825 101.854 88.3245 104.149C88.3106 106.111 87.416 106.985 86.1196 108.314C83.0136 107.073 77.9136 103.937 83.7131 101.826Z" fill="#FE8400"/>
<path d="M101.906 107.664C106.448 107.175 109.084 109.336 105.856 113.54C103.758 113.737 101.319 112.257 100.595 110.198C100.611 109.024 101.122 108.645 101.906 107.664Z" fill="#FE8400"/>
<path d="M98.0187 102.627C106.138 98.1719 116.463 103.039 121.756 110.198C122.241 110.854 122.03 111.588 121.804 112.274C120.832 112.972 121.356 112.816 120.196 112.8C119.736 112.283 119.672 111.812 119.482 111.145C118.351 110.344 118.54 110.376 117.786 109.357C114.141 104.446 106.425 103.198 100.848 103.762C100.518 103.766 98.4082 102.797 98.0187 102.627Z" fill="#411D17"/>
<path d="M149.028 102.672C149.609 102.731 149.927 102.815 150.5 102.951C152.311 108.941 137.553 106.859 133.978 110.202C132.519 109.323 131.875 109.243 132.179 107.522C134.607 104.801 145.767 104.679 149.028 102.672Z" fill="#FF4600"/>
<path d="M91.5467 101.967C89.7005 99.1778 79.5127 96.9027 76.1622 97.9813C74.8228 98.4131 73.1527 100.351 71.8348 99.9698C71.237 98.5373 71.3217 99.1532 71.4818 97.6318C74.2197 93.1245 88.4493 96.7273 92.1274 98.7882C93.1869 99.3837 94.8791 101.14 96.3049 101.951C94.5262 102.028 93.0042 101.395 91.5467 101.967Z" fill="#411D17"/>
<path d="M131.53 114.924C134.619 114.803 135.894 115.689 138.663 116.783C140.949 117.685 143.7 116.811 145.245 119.215C145.387 120.468 145.399 120.512 144.793 121.57C144.43 121.74 143.531 122.159 143.172 122.103C140.154 121.63 133.195 118.543 131.255 116.724L131.53 114.924Z" fill="#FF4600"/>
<path d="M89.0353 110.98C90.8705 111.086 93.2669 111.428 94.3195 113.006L93.8534 114.223C91.1137 115.577 89.0326 113.952 89.0353 110.98Z" fill="#411D17"/>
<path d="M22.8808 76.4128C23.3751 76.3311 24.6131 76.1456 24.9687 76.4902C27.3838 78.8441 38.3529 84.9144 35.6923 89.175C33.2776 89.0787 29.3692 82.49 27.5119 82.1923C26.6507 86.0966 32.9465 94.347 29.7745 98.1422L28.1865 100.03C24.8951 104.468 20.0819 105.205 15.202 103.11C14.6059 101.608 14.0094 99.5238 13.512 97.9433C15.936 87.7703 20.1785 92.4385 25.8181 90.7334C25.9488 90.5483 26.0796 90.3631 26.2139 90.1779C25.3111 86.3847 23.4661 79.9993 22.8808 76.4128Z" fill="#FEB0CF"/>
<path d="M62.7678 97.2735C60.1567 95.6903 60.5571 94.3414 58.7825 92.2017C57.9417 91.187 55.8154 90.6811 54.6398 89.3182C54.626 87.9226 55.0151 87.0989 56.2586 86.4352C58.1635 86.6917 62.5971 90.5242 64.4063 91.9582C64.8129 93.3815 65.5308 95.037 65.0625 96.3085C63.7335 97.5839 64.126 96.7549 62.7678 97.2735Z" fill="#FF4600"/>
<path d="M25.7457 151.576C30.495 147.922 31.2096 150.587 31.0872 144.103C31.0591 142.631 33.1153 143.108 33.5501 139.1C36.4141 135.522 44.0625 130.904 48.5814 129.779C51.858 130.796 58.0484 131.427 60.4796 133.03C62.0533 134.069 62.845 135.774 65.4311 136.792C74.5074 145.542 73.1251 160.655 62.8489 167.354C62.6941 167.455 60.2693 169.351 60.2672 169.354C60.1063 170.585 59.6845 174.593 58.5428 175.302C55.9367 176.918 52.5225 177.65 49.7294 178.849C48.1255 179.535 42.606 183.028 42.1836 184.64C41.1989 188.402 41.2945 192.644 41.5506 196.49C41.6474 198.381 40.7904 199.519 41.338 202.089L41.7086 202.134C44.0997 202.393 47.5962 201.55 48.9607 202.721C49.4711 206.298 51.0688 204.409 52.2469 206.586L52.3185 207.188C53.1003 208.515 52.9657 211.349 53.0177 213.037C51.0058 214.627 50.3599 214.89 48.6831 216.842L48.2725 216.906C46.3628 217.211 45.2713 218.153 43.5259 218.481C36.5259 219.795 30.5669 219.83 23.9127 217.196C22.0612 214.774 20.339 213.195 20.3475 209.907C20.2426 209.356 20.2787 209.215 20.2832 208.652C22.1027 204.729 29.3746 203.877 32.1857 202.496C33.2506 200.399 32.8869 193.737 31.1582 191.753C29.6392 195.485 25.9085 197.049 22.8611 199.306C21.0489 200.648 15.8037 200.412 15.5595 200.624C12.7374 199.522 11.1762 199.039 9.4731 196.319C7.18226 194.854 7.07368 193.692 5.84813 191.963C3.21453 188.246 6.14665 189.121 6.30154 186.713C5.67421 185.909 5.54729 185.735 5.09516 184.83C5.74577 181.495 21.4839 164.68 24.4395 160.565C26.1408 158.196 25.7157 154.573 25.7457 151.576Z" fill="#009DFE"/>
<path d="M65.4311 136.792C74.5074 145.542 73.1251 160.655 62.8489 167.354C62.694 167.455 60.2693 169.351 60.2671 169.354C60.1063 170.585 59.6845 174.593 58.5427 175.302C55.9367 176.918 52.5225 177.65 49.7294 178.849C48.1255 179.535 42.606 183.028 42.1836 184.64C41.1988 188.402 41.2945 192.644 41.5506 196.49C41.6473 198.381 40.7904 199.519 41.338 202.089L41.7085 202.134C44.0997 202.393 47.5961 201.55 48.9606 202.721C49.4711 206.298 51.0688 204.409 52.2469 206.586L52.3184 207.188C53.1003 208.515 52.9657 211.349 53.0177 213.037C51.0058 214.627 50.3599 214.89 48.6831 216.842L48.2725 216.906C46.3628 217.211 45.2713 218.153 43.5259 218.481C36.5259 219.795 30.5669 219.83 23.9126 217.196C22.0612 214.774 20.339 213.195 20.3474 209.907C20.2426 209.356 20.2787 209.215 20.2832 208.652C22.1027 204.729 29.3746 203.877 32.1856 202.496C33.2505 200.399 32.8868 193.737 31.1582 191.753C29.6392 195.485 25.9085 197.049 22.8611 199.306C21.0489 200.648 15.8037 200.412 15.5595 200.624C12.7374 199.522 11.1761 199.039 9.47308 196.319C10.6538 196.16 12.5675 197.399 13.5766 197.627C17.0353 198.402 22.4277 190.941 25.1268 188.908C27.059 187.451 29.3523 186.335 31.019 184.804C32.5938 183.355 33.1903 181.617 35.1405 180.322C38.4383 179.912 36.2256 178.803 38.8871 177.103C39.8094 176.513 40.7304 174.337 40.2721 173.312C37.7342 171.87 26.3553 162.843 27.3798 160.221C27.8132 160.368 31.456 163.759 32.0643 164.421C35.0552 167.677 54.568 179.133 56.37 171.003C56.3831 171.016 48.0989 168.289 46.4001 167.599C42.8215 166.144 30.4228 154.877 32.5948 151.001C33.4589 151.668 36.3057 156.925 37.675 158.215C40.5521 160.863 46.0682 166.012 50.1448 165.675C50.6916 165.63 56.5576 164.308 56.7986 164.175C61.7839 161.433 66.263 157.864 67.9236 152.212C69.837 145.699 67.6545 142.612 64.7067 137.098L65.4311 136.792Z" fill="#005EEA"/>
<path d="M31.1584 191.753C32.4657 190.854 36.7177 188.532 38.1737 188.259C38.6597 191.301 37.668 199.838 38.3959 204.664C36.9855 207.912 34.1074 205.39 33.2518 206.481C34.0445 207.887 36.7642 207.769 38.3444 207.928L40.3578 206.357C42.6708 204.556 41.6262 204.087 41.3381 202.089L41.7087 202.134C44.0998 202.393 47.5963 201.55 48.9608 202.721C49.4713 206.298 51.069 204.409 52.2471 206.586L52.3186 207.188C53.1005 208.515 52.9659 211.349 53.0179 213.037C51.006 214.627 50.3601 214.89 48.6833 216.842L48.2727 216.906C46.3629 217.21 45.2715 218.153 43.526 218.481C36.526 219.795 30.5671 219.83 23.9128 217.196C22.0613 214.774 20.3392 213.194 20.3476 209.907C20.2428 209.356 20.2789 209.215 20.2834 208.652C22.1029 204.728 29.3748 203.877 32.1858 202.496C33.2507 200.399 32.887 193.737 31.1584 191.753Z" fill="#009DFE"/>
<path d="M52.3184 207.188C53.1003 208.515 52.9657 211.349 53.0177 213.037C51.0058 214.628 50.3599 214.891 48.6831 216.842L48.2725 216.907C46.3628 217.211 45.2713 218.154 43.5259 218.481C36.5258 219.795 30.5669 219.831 23.9126 217.196C22.0611 214.774 20.339 213.195 20.3474 209.907C21.2344 210.505 22.6391 212.139 23.1388 212.473C28.1828 215.491 36.0295 215.006 41.5801 213.933C44.0946 213.45 45.984 212.424 48.409 212.262C49.7252 210.481 51.0332 209.048 52.3184 207.188Z" fill="#005EEA"/>
<path d="M43.0345 208.602C44.084 208.982 44.4219 209.292 44.5456 210.36C43.9364 211.498 43.6572 211.57 42.5308 212.314C42.0287 212.012 41.6569 211.725 41.1881 211.38C40.6882 210.27 40.7323 210.813 40.9338 209.705C41.9549 208.711 41.4849 209.031 43.0345 208.602Z" fill="#005EEA"/>
<path d="M19.0421 169.558C21.4044 170.152 23.1239 170.288 24.5348 172.295C25.1293 174.558 23.5126 176.119 22.0153 177.641C19.7114 179.983 13.4472 186.553 12.161 179.653C11.8489 177.98 12.6227 176.723 14.1842 176.102C15.245 175.323 15.7267 174.97 16.6492 173.998C17.7485 172.38 18.151 171.218 19.0421 169.558Z" fill="#005EEA"/>
<path d="M14.1841 176.102C15.245 175.323 15.7267 174.97 16.6493 173.997L17.4371 174.949L18.3111 175.579C18.2609 177.551 15.0921 180.207 13.4561 178.577C13.6305 177.546 13.7084 177.652 14.6211 176.766L14.1841 176.102Z" fill="#009DFE"/>
<path d="M14.1842 176.102C15.2451 175.323 15.7268 174.97 16.6494 173.997L17.4371 174.949C16.5046 175.565 15.5658 176.168 14.6212 176.766L14.1842 176.102Z" fill="#006CF1"/>
<path d="M49.48 134.109C50.4559 134.519 50.6176 134.568 51.6615 134.76C52.9796 134.256 55.7277 133.502 56.5577 134.997L55.7655 135.362L55.7302 136.044C56.2378 137.302 56.5086 137.496 57.4919 138.455C58.2445 138.504 58.4665 138.453 59.1374 138.797C58.8669 139.928 58.2694 143.212 57.3206 143.741C56.4376 142.657 57.3718 141.577 56.4717 140.253L55.77 140.261C54.9865 141.075 55.3768 143.703 54.3454 144.389C53.7245 143.579 53.7055 142.18 53.4711 140.965C52.3894 141.36 50.4649 142.019 49.5632 142.685C49.1649 142.979 48.9725 143.469 48.2411 144.019L47.793 143.753C47.9101 141.485 50.3279 141.508 52.3299 139.646C52.1576 138.268 51.8632 137.458 50.7984 136.595C48.461 135.858 46.6533 137.719 44.0746 138.543L43.9185 138.227C45.4028 136.11 48.3539 137.089 49.48 134.109Z" fill="#005EEA"/>
<path d="M52.9144 135.26C54.4102 135.813 55.1647 137.256 56.0408 138.582L55.7317 138.657L54.5412 139.21C52.9019 138.552 52.306 136.87 52.9144 135.26Z" fill="#009DFE"/>
</svg>
