<svg width="38" height="20" viewBox="0 0 38 20" fill="none" xmlns="http://www.w3.org/2000/svg">
<path d="M8.00004 15.7833C7.84449 15.7833 7.68615 15.7556 7.52504 15.7C7.36393 15.6444 7.22226 15.5556 7.10004 15.4333L5.95004 14.3833C4.77226 13.3056 3.70837 12.2361 2.75837 11.175C1.80837 10.1139 1.33337 8.94444 1.33337 7.66667C1.33337 6.62222 1.68337 5.75 2.38337 5.05C3.08337 4.35 3.9556 4 5.00004 4C5.58893 4 6.14449 4.125 6.66671 4.375C7.18893 4.625 7.63337 4.96667 8.00004 5.4C8.36671 4.96667 8.81115 4.625 9.33337 4.375C9.8556 4.125 10.4112 4 11 4C12.0445 4 12.9167 4.35 13.6167 5.05C14.3167 5.75 14.6667 6.62222 14.6667 7.66667C14.6667 8.94444 14.1945 10.1167 13.25 11.1833C12.3056 12.25 11.2334 13.3222 10.0334 14.4L8.90004 15.4333C8.77782 15.5556 8.63615 15.6444 8.47504 15.7C8.31393 15.7556 8.1556 15.7833 8.00004 15.7833Z" fill="#007AFF"/>
<path d="M26.4958 1.7305L26.5849 1.72016C28.1462 1.52943 29.3955 1.47031 30.7 2.55363C30.9137 2.73147 31.1315 2.9752 31.3476 3.13168C32.4831 3.18463 33.4382 3.31688 34.2438 4.20271C34.6656 4.6662 35.015 5.54525 34.9811 6.16181C34.9679 6.39309 34.9375 6.42689 35.0173 6.6741C35.1949 6.8682 35.5207 6.96183 35.7713 7.0366C36.3551 7.73765 36.9378 8.31017 36.8717 9.30947C36.8522 9.60904 36.7729 9.70681 36.8769 10.0064C36.7786 10.3839 36.3712 11.0389 36.3367 11.2582C36.789 11.4842 37.0964 12.6657 36.9723 13.147C36.5557 14.7596 35.7086 15.37 34.1163 15.1032C33.0813 17.1064 30.2488 18.1966 28.0962 18.3017C27.2773 18.3417 27.6129 18.5308 26.7222 18.1853C26.7188 18.1838 25.4068 18.0282 25.2223 17.9962C24.9505 17.6286 25.1149 17.9504 24.8178 18.0135C24.327 17.6885 24.1386 17.8431 23.584 17.6868C23.3277 17.6145 23.5053 17.4414 23.2576 17.3344C22.9795 17.2145 22.6393 17.2756 22.3933 17.0937C22.3594 16.7872 21.9882 16.5378 21.7549 16.3426C21.0544 15.7577 20.5786 14.9829 20.3096 14.1141C20.2602 14.0604 20.1166 13.9975 20.1108 13.9203C20.0424 12.9939 20.3453 11.331 20.74 10.5225C19.4442 9.93016 19.2764 10.3086 19 8.65664C19.4649 7.80559 19.5643 8.01003 20.2424 7.59522L20.2539 7.46791C20.1453 7.35968 20.0372 7.26174 19.9235 7.15845C19.8252 6.82831 20.0677 5.53427 20.1573 5.15757C20.1619 5.13837 20.7337 4.64907 20.8153 4.57993C21.2417 4.46607 21.7365 4.3483 22.1577 4.51647L22.2014 4.53429C22.3732 4.3864 22.468 3.53023 22.9697 3.02512C23.7271 2.26293 24.527 2.34325 25.5384 2.30593C25.7062 2.06544 26.2291 1.83663 26.4958 1.7305Z" fill="#FED7C0"/>
<path d="M24.9124 10.3977C25.1066 10.4457 25.4278 10.6943 25.5896 10.814C26.5119 10.4145 27.0322 10.6995 27.804 10.9915C27.7134 10.9572 29.7432 10.0071 29.467 11.8624C29.4449 12.0108 29.1555 12.3745 29.0513 12.5131C28.5531 12.6032 28.1556 12.615 27.7397 12.323C27.2818 12.0299 28.0839 11.5906 26.849 10.9697C25.9388 11.2646 25.8427 10.6928 25.5313 11.9451C25.4221 12.3835 24.5935 12.5204 24.1541 12.2652C23.9376 12.142 23.782 11.9349 23.7238 11.6929C23.6603 11.4305 23.7108 11.1536 23.8622 10.9302C24.1257 10.5421 24.493 10.4881 24.9124 10.3977Z" fill="#657A83"/>
<path d="M26.4958 1.7305L26.5849 1.72016C28.1462 1.52943 29.3955 1.47031 30.7 2.55363C30.9137 2.73147 31.1315 2.9752 31.3476 3.13168C32.4831 3.18463 33.4382 3.31688 34.2438 4.20271C34.6656 4.6662 35.015 5.54525 34.9811 6.16181C34.9679 6.39309 34.9375 6.42689 35.0173 6.6741C35.1949 6.8682 35.5207 6.96183 35.7713 7.0366C36.3551 7.73765 36.9378 8.31017 36.8717 9.30947C36.8522 9.60904 36.7729 9.70681 36.8769 10.0064C36.7786 10.3839 36.3712 11.0389 36.3367 11.2582C36.2149 11.4653 35.4299 11.9371 35.1288 12.001C34.4565 12.1657 33.4152 12.1032 32.8336 11.7584C31.7108 11.0925 31.5332 10.1199 31.566 8.93012C31.5694 8.80913 30.7873 8.69125 30.6281 8.59612C30.3276 8.41593 29.9753 7.89634 29.6765 7.74713C29.4978 7.88134 29.4346 8.06705 29.3334 8.27282C28.299 8.72884 27.8267 8.63049 26.7544 8.35817C26.5216 8.10653 26.1866 7.89065 25.9752 7.67414C25.4051 7.08925 25.4177 7.54855 24.6971 7.31077L24.6149 7.28306C23.9886 8.44898 23.2455 8.91943 22.0255 8.9019C21.7342 8.8977 21.8106 9.7033 21.5515 9.98022C21.1647 10.3939 21.3291 10.4 20.74 10.5225C19.4442 9.93016 19.2764 10.3086 19 8.65664C19.4649 7.80559 19.5643 8.01003 20.2424 7.59522L20.2539 7.46791C20.1453 7.35968 20.0372 7.26174 19.9235 7.15845C19.8252 6.82831 20.0677 5.53427 20.1573 5.15757C20.1619 5.13837 20.7337 4.64907 20.8153 4.57993C21.2417 4.46607 21.7365 4.3483 22.1577 4.51647L22.2014 4.53429C22.3732 4.3864 22.468 3.53023 22.9697 3.02512C23.7271 2.26293 24.527 2.34325 25.5384 2.30593C25.7062 2.06544 26.2291 1.83663 26.4958 1.7305Z" fill="#A1BBC7"/>
<path d="M28.5352 9.5955C29.0311 9.51256 30.2942 10.0442 30.481 10.6081L30.408 10.6657C30.0942 10.6415 29.7035 10.3728 29.4265 10.206C28.6289 9.89334 28.0243 9.7235 27.2537 10.2388L27.1876 10.2834L27.1095 10.2589L27.1336 10.1272C27.4118 9.7658 28.1036 9.65889 28.5352 9.5955Z" fill="#411D17"/>
<path d="M24.8436 9.60361C24.9741 9.57114 25.4993 9.5812 25.6665 9.58114C26.1171 9.82737 26.2469 9.88605 26.5946 10.2538L26.5682 10.2929C25.9665 10.2284 25.4947 9.87485 24.8729 9.94181C23.8075 9.90588 24.0673 10.2525 23.2576 10.6431C23.1398 10.5606 23.1875 10.6147 23.134 10.4578C23.3967 9.99882 24.3172 9.65632 24.8436 9.60361Z" fill="#411D17"/>
<path d="M23.8897 13.7859C24.2701 13.7892 24.5144 14.0333 24.8752 14.1303C25.7539 14.3527 26.7607 14.3966 27.6514 14.2297C27.9548 14.1729 28.2686 13.8845 28.5208 14.0263L28.5168 14.1433C27.2629 14.7153 26.0177 14.6425 24.6816 14.2996C24.4494 14.24 24.0041 14.0076 23.8897 13.7859Z" fill="#411D17"/>
<path d="M28.8231 12.7974C29.3897 12.9311 30.181 13.5523 30.1063 14.1915C29.8345 14.1716 29.746 14.0055 29.6799 13.7485C29.5547 13.2603 28.9731 13.1377 28.8231 12.7974Z" fill="#4A2313"/>
</svg>
