<svg width="38" height="20" viewBox="0 0 38 20" fill="none" xmlns="http://www.w3.org/2000/svg">
<path d="M8.00004 15.7833C7.84449 15.7833 7.68615 15.7556 7.52504 15.7C7.36393 15.6444 7.22226 15.5556 7.10004 15.4333L5.95004 14.3833C4.77226 13.3056 3.70837 12.2361 2.75837 11.175C1.80837 10.1139 1.33337 8.94444 1.33337 7.66667C1.33337 6.62222 1.68337 5.75 2.38337 5.05C3.08337 4.35 3.9556 4 5.00004 4C5.58893 4 6.14449 4.125 6.66671 4.375C7.18893 4.625 7.63337 4.96667 8.00004 5.4C8.36671 4.96667 8.81115 4.625 9.33337 4.375C9.8556 4.125 10.4112 4 11 4C12.0445 4 12.9167 4.35 13.6167 5.05C14.3167 5.75 14.6667 6.62222 14.6667 7.66667C14.6667 8.94444 14.1945 10.1167 13.25 11.1833C12.3056 12.25 11.2334 13.3222 10.0334 14.4L8.90004 15.4333C8.77782 15.5556 8.63615 15.6444 8.47504 15.7C8.31393 15.7556 8.1556 15.7833 8.00004 15.7833Z" fill="#898989"/>
<path d="M26.4958 1.73075L26.5849 1.72041C28.1462 1.52967 29.3955 1.47055 30.7 2.55388C30.9137 2.73172 31.1315 2.97545 31.3476 3.13193C32.4831 3.18487 33.4382 3.31712 34.2438 4.20295C34.6656 4.66644 35.015 5.5455 34.9811 6.16205C34.9679 6.39334 34.9375 6.42713 35.0173 6.67434C35.1949 6.86844 35.5207 6.96207 35.7713 7.03685C36.3551 7.73789 36.9378 8.31042 36.8717 9.30971C36.8522 9.60928 36.7729 9.70705 36.8769 10.0067C36.7786 10.3841 36.3712 11.0391 36.3367 11.2585C36.789 11.4844 37.0964 12.666 36.9723 13.1472C36.5557 14.7598 35.7086 15.3702 34.1163 15.1035C33.0813 17.1067 30.2488 18.1968 28.0962 18.302C27.2773 18.342 27.6129 18.5311 26.7222 18.1855C26.7188 18.1841 25.4068 18.0285 25.2223 17.9964C24.9505 17.6289 25.1149 17.9507 24.8178 18.0137C24.327 17.6887 24.1386 17.8434 23.584 17.6871C23.3277 17.6147 23.5053 17.4417 23.2576 17.3347C22.9795 17.2147 22.6393 17.2759 22.3933 17.0939C22.3594 16.7874 21.9882 16.5381 21.7549 16.3429C21.0544 15.7579 20.5786 14.9832 20.3096 14.1144C20.2602 14.0606 20.1166 13.9978 20.1108 13.9205C20.0424 12.9941 20.3453 11.3313 20.74 10.5228C19.4442 9.9304 19.2764 10.3088 19 8.65689C19.4649 7.80583 19.5643 8.01028 20.2424 7.59546L20.2539 7.46815C20.1453 7.35992 20.0372 7.26198 19.9235 7.1587C19.8252 6.82855 20.0677 5.53452 20.1573 5.15781C20.1619 5.13862 20.7337 4.64932 20.8153 4.58017C21.2417 4.46631 21.7365 4.34854 22.1577 4.51672L22.2014 4.53454C22.3732 4.38665 22.468 3.53047 22.9697 3.02537C23.7271 2.26318 24.527 2.34349 25.5384 2.30617C25.7062 2.06569 26.2291 1.83688 26.4958 1.73075Z" fill="#FED7C0"/>
<path d="M24.9125 10.3981C25.1067 10.446 25.4279 10.6947 25.5897 10.8143C26.5119 10.4149 27.0322 10.6999 27.804 10.9919C27.7135 10.9576 29.7433 10.0075 29.4671 11.8628C29.4449 12.0111 29.1556 12.3749 29.0513 12.5135C28.5532 12.6035 28.1556 12.6153 27.7398 12.3234C27.2819 12.0303 28.084 11.5909 26.849 10.9701C25.9389 11.265 25.8428 10.6932 25.5314 11.9455C25.4222 12.3838 24.5935 12.5207 24.1541 12.2656C23.9377 12.1424 23.782 11.9352 23.7239 11.6932C23.6604 11.4309 23.7109 11.1539 23.8622 10.9306C24.1258 10.5425 24.4931 10.4885 24.9125 10.3981Z" fill="#657A83"/>
<path d="M26.4958 1.73075L26.5849 1.72041C28.1462 1.52967 29.3955 1.47055 30.7 2.55388C30.9137 2.73172 31.1315 2.97545 31.3476 3.13193C32.4831 3.18487 33.4382 3.31712 34.2438 4.20295C34.6656 4.66644 35.015 5.5455 34.9811 6.16205C34.9679 6.39334 34.9375 6.42713 35.0173 6.67434C35.1949 6.86844 35.5207 6.96207 35.7713 7.03685C36.3551 7.73789 36.9378 8.31042 36.8717 9.30971C36.8522 9.60928 36.7729 9.70705 36.8769 10.0067C36.7786 10.3841 36.3712 11.0391 36.3367 11.2585C36.2149 11.4655 35.4299 11.9374 35.1288 12.0013C34.4565 12.166 33.4152 12.1035 32.8336 11.7586C31.7108 11.0927 31.5332 10.1202 31.566 8.93036C31.5694 8.80938 30.7873 8.69149 30.6281 8.59637C30.3276 8.41618 29.9753 7.89659 29.6765 7.74738C29.4978 7.88158 29.4346 8.06729 29.3334 8.27306C28.299 8.72908 27.8267 8.63074 26.7544 8.35841C26.5216 8.10678 26.1866 7.8909 25.9752 7.67438C25.4051 7.0895 25.4177 7.54879 24.6971 7.31101L24.6149 7.28331C23.9886 8.44923 23.2455 8.91967 22.0255 8.90214C21.7342 8.89795 21.8106 9.70354 21.5515 9.98047C21.1647 10.3941 21.3291 10.4002 20.74 10.5228C19.4442 9.9304 19.2764 10.3088 19 8.65689C19.4649 7.80583 19.5643 8.01028 20.2424 7.59546L20.2539 7.46815C20.1453 7.35992 20.0372 7.26198 19.9235 7.1587C19.8252 6.82855 20.0677 5.53452 20.1573 5.15781C20.1619 5.13862 20.7337 4.64932 20.8153 4.58017C21.2417 4.46631 21.7365 4.34854 22.1577 4.51672L22.2014 4.53454C22.3732 4.38665 22.468 3.53047 22.9697 3.02537C23.7271 2.26318 24.527 2.34349 25.5384 2.30617C25.7062 2.06569 26.2291 1.83688 26.4958 1.73075Z" fill="#A1BBC7"/>
<path d="M28.5352 9.59598C29.0311 9.51305 30.2942 10.0447 30.481 10.6086L30.408 10.6662C30.0942 10.6419 29.7035 10.3733 29.4265 10.2065C28.6289 9.89383 28.0243 9.72399 27.2537 10.2393L27.1876 10.2839L27.1095 10.2594L27.1336 10.1276C27.4118 9.76629 28.1036 9.65938 28.5352 9.59598Z" fill="#411D17"/>
<path d="M24.8436 9.60398C24.9741 9.57151 25.4993 9.58156 25.6665 9.58151C26.1171 9.82774 26.2469 9.88642 26.5946 10.2542L26.5682 10.2932C25.9665 10.2288 25.4947 9.87521 24.8729 9.94217C23.8075 9.90625 24.0673 10.2528 23.2576 10.6435C23.1398 10.561 23.1875 10.6151 23.134 10.4581C23.3967 9.99919 24.3172 9.65669 24.8436 9.60398Z" fill="#411D17"/>
<path d="M23.8898 13.7861C24.2702 13.7894 24.5144 14.0335 24.8753 14.1305C25.7539 14.353 26.7607 14.3969 27.6515 14.2299C27.9549 14.1731 28.2686 13.8848 28.5209 14.0265L28.5169 14.1435C27.263 14.7155 26.0177 14.6428 24.6816 14.2999C24.4495 14.2403 24.0041 14.0078 23.8898 13.7861Z" fill="#411D17"/>
<path d="M28.8231 12.7979C29.3897 12.9316 30.181 13.5528 30.1063 14.192C29.8345 14.1721 29.746 14.006 29.6799 13.749C29.5547 13.2608 28.9731 13.1382 28.8231 12.7979Z" fill="#4A2313"/>
</svg>
