<svg width="245" height="49" viewBox="0 0 245 49" fill="none" xmlns="http://www.w3.org/2000/svg">
<path d="M24.5552 0.862045C24.5552 -0.287348 31.2426 -0.287348 31.2426 0.862045V14.0278C32.3397 13.4531 33.5936 12.9829 34.7953 12.7217V0.862045C34.7953 -0.287348 42.0051 -0.287348 42.0051 0.862045V34.1944C42.0051 35.4483 34.7953 35.6573 34.7953 34.4557V18.0507C33.6459 18.2074 32.4442 18.5731 31.2426 19.2523V32.4181C31.2426 33.672 24.5552 33.881 24.5552 32.6793V0.862045ZM15.2033 47.9349C9.71759 47.9349 6.26942 46.0018 6.84411 41.77C7.26207 38.3218 7.41881 35.3438 7.31432 32.6271C7.26207 31.6867 16.7707 30.6418 16.3005 32.2614C15.6213 34.8214 15.0988 38.6353 14.9944 40.6206C14.8899 41.9267 15.6213 42.7626 17.2409 42.8671C24.085 43.3896 36.3104 42.5536 42.7888 40.2549C43.6247 39.9414 44.0949 47.9349 42.0051 47.9349H15.2033ZM1.88082 26.6189C0.679187 26.6189 0.156735 26.0964 0.156735 24.947L0 5.6686C0 4.25798 0.574696 3.63104 1.77633 3.57879C7.68003 3.36981 15.8825 3.21307 18.3903 3.16083C20.8458 3.10858 21.943 4.25798 21.7862 6.76574C21.6817 11.1543 21.1593 19.8793 20.8981 24.5291C20.8458 25.8352 20.3234 26.4622 18.8605 26.5144C17.8156 26.5666 6.00819 26.6189 1.88082 26.6189ZM7.10534 21.4989L13.7927 21.3944C14.1584 21.3944 14.4197 21.1854 14.4197 20.8719C14.4719 18.9911 14.6286 12.0425 14.6286 9.16902C14.6286 8.69881 14.4719 8.48983 14.1062 8.48983C12.4866 8.48983 9.03841 8.54208 7.10534 8.64657V21.4989Z" fill="black"/>
<path d="M41.8965 43.5463C41.0083 43.5463 41.0083 37.3291 41.8965 37.3291H58.1447L58.0925 28.4997C55.637 28.4997 53.2859 28.343 51.3006 28.134C46.7553 27.6638 44.77 25.7307 44.8222 22.0213L44.9267 7.34044C44.9267 4.72818 46.2851 3.42205 48.8974 3.42205C58.9284 3.4743 66.8697 3.57879 73.766 3.16083C74.7065 3.10858 75.4901 3.00409 76.535 2.79511C78.2069 2.48164 77.5799 9.95269 76.4828 9.84821C69.273 9.01228 63.1603 9.22126 53.8606 9.27351C53.0247 9.27351 52.7113 9.63922 52.7113 10.3707V20.5585C52.7113 21.8123 53.3382 22.4393 54.8011 22.6483C58.2492 23.0662 60.8092 23.014 64.9889 22.6483C69.8999 22.0736 73.8705 20.2972 76.4828 17.685C78.1024 16.2744 80.5579 24.7903 78.3114 25.7307C75.3334 26.9324 70.3179 27.8728 65.668 28.1862L65.3546 37.3291H76.6918L81.9685 36.8067C83.3791 36.7544 83.3269 43.5463 81.9685 43.5463H41.8965Z" fill="black"/>
<path d="M100.482 48.8231C89.6147 48.9798 82.7706 45.9496 82.7706 41.0385C82.7706 36.2842 89.6147 33.2018 100.482 33.1495C111.349 33.0973 118.141 36.0753 118.141 40.8818C118.141 45.5839 111.349 48.6663 100.482 48.8231ZM100.429 44.1732C105.967 44.0688 109.677 42.8671 109.677 40.8818C109.677 38.8965 105.967 37.7471 100.429 37.7993C94.8914 37.8516 91.182 39.0532 91.182 41.0385C91.182 43.1283 94.8914 44.2777 100.429 44.1732ZM80.315 30.903C79.4269 30.903 79.4791 25.0515 80.315 25.0515H96.8767L96.8245 22.0736C94.4212 22.0213 91.9657 21.8646 89.9804 21.7078C85.2261 21.2376 83.3453 19.7225 83.3975 16.4833V12.2515C83.3975 10.6841 84.3379 9.84821 85.9575 9.84821C91.6522 9.79596 102.989 9.84821 108.266 9.84821V7.70615C108.266 7.34044 108.057 7.1837 107.744 7.1837C99.907 7.13146 92.9584 7.28819 84.4947 8.01962C83.5542 8.12412 83.1363 2.27266 84.4947 2.27266H112.655C114.64 2.27266 115.528 3.31757 115.528 5.0939L115.476 12.1992C115.476 13.6621 114.64 14.3935 113.177 14.3935H90.9208V15.8041C90.9208 16.5356 91.2343 16.9013 92.5404 17.058C99.6457 17.7372 110.356 17.267 115.789 15.3862C117.357 14.8637 117.2 20.9764 115.998 21.1854C112.759 21.6556 108.371 21.9691 103.982 22.0736L103.93 25.0515H115.11L120.387 24.5291C121.798 24.4768 121.745 30.903 120.387 30.903H80.315Z" fill="black"/>
<path d="M126.072 43.8172C125.184 43.8172 125.236 37.6001 126.072 37.6001H143L142.947 33.2115C142.947 33.1592 142.947 33.107 143 33.0025C135.894 32.4801 131.715 29.6066 131.715 25.1657C131.715 20.1502 137.148 17.1722 146.134 17.0155C155.12 16.8588 160.449 19.9412 160.449 25.0612C160.449 29.1886 156.74 31.9576 150.209 32.8458L150.105 37.6001H160.867L166.144 37.0776C167.555 37.0254 167.503 43.8172 166.144 43.8172H126.072ZM146.082 28.5617C150.105 28.4572 152.56 27.0988 152.56 25.0612C152.56 22.8669 150.157 21.5608 146.082 21.6131C142.059 21.7176 139.604 23.1282 139.604 25.1657C139.604 27.3078 142.111 28.6662 146.082 28.5617ZM128.998 16.0228C127.901 16.1273 127.013 9.28322 129.155 9.28322L163.584 9.38771C164.943 9.38771 164.42 15.9183 162.853 15.8139C161.129 15.6571 158.83 15.5004 156.374 15.4481C149.687 15.2914 139.813 15.2392 128.998 16.0228ZM138.245 7.50688C137.148 7.55913 137.409 0.767259 138.454 0.767259C144.619 0.610526 150.68 0.923996 155.8 1.49869C156.688 1.60318 156.322 7.55913 155.486 7.50688C149.948 7.19341 144.045 7.24566 138.245 7.50688Z" fill="black"/>
<path d="M174.417 33.0025C171.23 32.7935 168.305 31.0694 167.991 28.196C167.678 25.1657 171.074 22.7102 176.246 22.24C179.746 21.822 184.083 22.2923 188.419 23.9119C188.941 23.4416 189.412 22.658 189.359 21.8743C189.15 20.1502 183.821 19.2098 170.394 19.3143C168.305 19.3143 168.096 13.8285 170.185 13.7763C182.045 13.4106 189.621 12.5747 192.285 10.9551C193.539 10.1714 192.912 9.02199 191.919 9.02199C185.075 9.12648 176.403 9.70118 169.088 10.4326C168.305 10.4849 167.991 3.06605 169.297 3.37952C170.081 3.48401 171.544 3.48401 172.641 3.53625C179.746 3.69299 187.635 3.48401 193.905 3.43176C199.234 3.11829 201.48 5.1036 201.271 8.9175C201.115 12.2089 196.308 15.5526 190.039 16.0228C196.726 16.9633 197.98 18.8963 197.98 20.8816C197.98 22.867 196.308 25.0612 194.427 26.5764C196.621 26.9421 199.652 25.5837 201.846 24.3298C203.831 24.8 202.577 32.1143 201.324 32.4278C197.301 33.4205 192.964 32.8458 189.307 31.4874L189.359 37.0776H199.495L204.563 36.5552C205.973 36.5029 205.921 43.2948 204.563 43.2948H184.527H164.491C163.603 43.2948 163.603 37.0776 164.491 37.0776H182.097L182.045 32.1143C179.015 32.8458 176.35 33.1592 174.417 33.0025ZM176.455 27.569C177.03 28.0915 178.388 28.2482 182.62 26.8898C180.739 25.6882 179.172 25.3225 177.918 25.3225C176.873 25.3747 176.246 25.7927 176.089 26.4719C175.985 26.8376 176.246 27.36 176.455 27.569Z" fill="black"/>
<path d="M230.547 47.0564C231.853 44.7577 232.532 42.8246 232.637 40.9438C232.689 40.1078 232.323 39.6899 231.487 39.6899C225.322 39.6899 216.702 40.2646 206.828 41.205C206.044 41.2572 204.738 34.4131 206.984 34.6743C207.768 34.7788 209.231 34.8833 210.38 34.8833C219.419 34.9356 228.718 34.7788 235.04 34.4654C238.697 34.2564 240.317 35.5625 240.212 38.9062C240.108 41.5185 239.742 44.183 239.22 47.0564C238.958 48.676 229.92 48.2058 230.547 47.0564ZM202.909 31.4352C202.021 31.4352 202.073 25.5837 202.909 25.5837H219.471L219.419 22.0833C217.015 22.031 214.56 21.8743 212.575 21.7176C207.82 21.2473 205.939 19.7322 205.992 16.493V12.1567C205.992 10.5893 206.932 9.75342 208.552 9.75342L230.86 9.70118V7.45464C230.86 7.08892 230.651 6.93219 230.338 6.93219C222.501 6.87994 215.553 7.03667 207.089 7.76811C206.148 7.8726 205.73 2.02114 207.089 2.02114H235.249C237.234 2.02114 238.122 3.06605 238.122 4.84238L238.07 12.0522C238.07 13.5151 237.234 14.2465 235.771 14.2465H213.515V15.8139C213.515 16.5453 213.881 16.911 215.135 17.0677C222.24 17.7469 232.95 17.2767 238.384 15.3959C239.951 14.8734 239.794 20.9861 238.593 21.1951C235.353 21.6653 231.017 21.9788 226.576 22.0833L226.524 25.5837H237.705L242.981 25.0612C244.392 25.009 244.34 31.4352 242.981 31.4352H202.909Z" fill="black"/>
</svg>
