<svg width="16" height="16" viewBox="0 0 16 16" fill="none" xmlns="http://www.w3.org/2000/svg">
<path d="M9.56667 13.8502L6 12.6002L2.9 13.8002C2.78889 13.8446 2.68056 13.8585 2.575 13.8418C2.46944 13.8252 2.37222 13.7891 2.28333 13.7335C2.19444 13.6779 2.125 13.6029 2.075 13.5085C2.025 13.4141 2 13.3057 2 13.1835V3.8335C2 3.68905 2.04167 3.56127 2.125 3.45016C2.20833 3.33905 2.32222 3.25572 2.46667 3.20016L5.56667 2.15016C5.63333 2.12794 5.70278 2.11127 5.775 2.10016C5.84722 2.08905 5.92222 2.0835 6 2.0835C6.07778 2.0835 6.15278 2.08905 6.225 2.10016C6.29722 2.11127 6.36667 2.12794 6.43333 2.15016L10 3.40016L13.1 2.20016C13.2111 2.15572 13.3194 2.14183 13.425 2.1585C13.5306 2.17516 13.6278 2.21127 13.7167 2.26683C13.8056 2.32238 13.875 2.39738 13.925 2.49183C13.975 2.58627 14 2.69461 14 2.81683V12.1668C14 12.3113 13.9583 12.4391 13.875 12.5502C13.7917 12.6613 13.6778 12.7446 13.5333 12.8002L10.4333 13.8502C10.3667 13.8724 10.2972 13.8891 10.225 13.9002C10.1528 13.9113 10.0778 13.9168 10 13.9168C9.92222 13.9168 9.84722 13.9113 9.775 13.9002C9.70278 13.8891 9.63333 13.8724 9.56667 13.8502ZM9.33333 12.3668V4.56683L6.66667 3.6335V11.4335L9.33333 12.3668Z" fill="black"/>
</svg>
