<svg width="32" height="32" viewBox="0 0 32 32" fill="none" xmlns="http://www.w3.org/2000/svg">
<path d="M16.8332 9.50016C16.8332 8.90433 17.0453 8.39426 17.4696 7.96995C17.8939 7.54565 18.404 7.3335 18.9998 7.3335C19.5957 7.3335 20.1057 7.54565 20.53 7.96995C20.9544 8.39426 21.1665 8.90433 21.1665 9.50016C21.1665 10.096 20.9544 10.6061 20.53 11.0304C20.1057 11.4547 19.5957 11.6668 18.9998 11.6668C18.404 11.6668 17.8939 11.4547 17.4696 11.0304C17.0453 10.6061 16.8332 10.096 16.8332 9.50016ZM16.8332 16.0002C16.8332 15.4043 17.0453 14.8943 17.4696 14.47C17.8939 14.0456 18.404 13.8335 18.9998 13.8335C19.5957 13.8335 20.1057 14.0456 20.53 14.47C20.9544 14.8943 21.1665 15.4043 21.1665 16.0002C21.1665 16.596 20.9544 17.1061 20.53 17.5304C20.1057 17.9547 19.5957 18.1668 18.9998 18.1668C18.404 18.1668 17.8939 17.9547 17.4696 17.5304C17.0453 17.1061 16.8332 16.596 16.8332 16.0002ZM16.8332 22.5002C16.8332 21.9043 17.0453 21.3943 17.4696 20.97C17.8939 20.5456 18.404 20.3335 18.9998 20.3335C19.5957 20.3335 20.1057 20.5456 20.53 20.97C20.9544 21.3943 21.1665 21.9043 21.1665 22.5002C21.1665 23.096 20.9544 23.6061 20.53 24.0304C20.1057 24.4547 19.5957 24.6668 18.9998 24.6668C18.404 24.6668 17.8939 24.4547 17.4696 24.0304C17.0453 23.6061 16.8332 23.096 16.8332 22.5002Z" fill="black"/>
</svg>
