<svg width="32" height="32" viewBox="0 0 32 32" fill="none" xmlns="http://www.w3.org/2000/svg">
<path d="M11.5067 22.0833H14.0062V9.58333H11.5067V22.0833ZM17.6604 22.0833H20.16V9.58333H17.6604V22.0833ZM15.8362 31.6667C13.6462 31.6667 11.5878 31.2511 9.66083 30.42C7.73389 29.5889 6.05778 28.461 4.6325 27.0362C3.20722 25.6115 2.07875 23.9361 1.24708 22.01C0.415694 20.0839 0 18.026 0 15.8362C0 13.6462 0.415555 11.5878 1.24667 9.66083C2.07778 7.73389 3.20569 6.05778 4.63042 4.6325C6.05514 3.20722 7.73056 2.07875 9.65667 1.24708C11.5828 0.415694 13.6407 0 15.8304 0C18.0204 0 20.0789 0.415555 22.0058 1.24667C23.9328 2.07778 25.6089 3.20569 27.0342 4.63042C28.4594 6.05514 29.5879 7.73056 30.4196 9.65667C31.251 11.5828 31.6667 13.6407 31.6667 15.8304C31.6667 18.0204 31.2511 20.0789 30.42 22.0058C29.5889 23.9328 28.461 25.6089 27.0362 27.0342C25.6115 28.4594 23.9361 29.5879 22.01 30.4196C20.0839 31.251 18.026 31.6667 15.8362 31.6667Z" fill="#282828"/>
</svg>
