<svg width="53" height="72" viewBox="0 0 53 72" fill="none" xmlns="http://www.w3.org/2000/svg">
<g filter="url(#filter0_d_341_3905)">
<path d="M27.7913 7.00061C27.8058 7.00089 27.8553 7.00472 27.9803 7.0435C28.0568 7.06727 28.1229 7.09054 28.2319 7.12716L28.5833 7.23281C30.9891 7.83159 33.4307 9.08947 35.1207 10.826C35.3903 11.1033 35.7917 11.6141 36.4165 11.9775L36.423 11.9811L37.599 12.6531C38.9875 15.1968 40.3004 18.2892 40.9667 21.4458C41.6536 24.7006 41.6365 27.936 40.411 30.7059C39.0461 33.3189 37.5205 35.8127 35.9675 38.3392C34.4132 40.8677 32.8303 43.4305 31.3941 46.1291C30.8606 47.1315 30.4554 48.3669 30.083 49.5701C29.6998 50.808 29.347 52.0274 28.9073 53.136C28.4665 54.2472 27.9788 55.1376 27.3867 55.7359C26.8775 56.2505 26.2846 56.5574 25.5039 56.5898C25.092 56.357 24.8497 56.1984 24.4681 55.9292C23.0447 52.0614 19.3631 44.0377 17.5252 40.4773L17.5065 40.439L17.4837 40.4033L17.1957 39.9557C16.5241 38.9286 15.8458 38.0215 15.2063 37.1792C14.4679 36.2068 13.7966 35.3384 13.2051 34.431C12.0497 32.6586 11.2184 30.7652 11.0625 27.9409C10.7081 21.5281 11.8633 16.64 14.539 13.2075C17.1967 9.79822 21.4892 7.65436 27.7913 7.00061Z" fill="#FE8401" stroke="#FF7631" stroke-width="2"/>
<path d="M26.2895 15.9363L26.53 15.9343C28.5052 15.8993 31.8106 18.2316 32.2382 20.2069C33.5288 26.17 30.1389 28.7443 25.2569 30.1866C23.9599 29.9787 22.0466 28.8976 20.8004 28.2734C17.9118 20.8777 19.6852 19.1176 26.2895 15.9363Z" fill="white"/>
</g>
<defs>
<filter id="filter0_d_341_3905" x="-4.45361" y="-4.30627" width="60" height="80" filterUnits="userSpaceOnUse" color-interpolation-filters="sRGB">
<feFlood flood-opacity="0" result="BackgroundImageFix"/>
<feColorMatrix in="SourceAlpha" type="matrix" values="0 0 0 0 0 0 0 0 0 0 0 0 0 0 0 0 0 0 127 0" result="hardAlpha"/>
<feOffset dy="4"/>
<feGaussianBlur stdDeviation="5"/>
<feColorMatrix type="matrix" values="0 0 0 0 0 0 0 0 0 0 0 0 0 0 0 0 0 0 0.2 0"/>
<feBlend mode="normal" in2="BackgroundImageFix" result="effect1_dropShadow_341_3905"/>
<feBlend mode="normal" in="SourceGraphic" in2="effect1_dropShadow_341_3905" result="shape"/>
</filter>
</defs>
</svg>
