<svg width="20" height="20" viewBox="0 0 20 20" fill="none" xmlns="http://www.w3.org/2000/svg">
<path d="M15 9.16683H13.3334C13.0973 9.16683 12.8993 9.08697 12.7396 8.92725C12.5799 8.76752 12.5 8.56961 12.5 8.3335C12.5 8.09738 12.5799 7.89947 12.7396 7.73975C12.8993 7.58002 13.0973 7.50016 13.3334 7.50016H15V5.8335C15 5.59739 15.0799 5.39947 15.2396 5.23975C15.3993 5.08002 15.5973 5.00016 15.8334 5.00016C16.0695 5.00016 16.2674 5.08002 16.4271 5.23975C16.5868 5.39947 16.6667 5.59739 16.6667 5.8335V7.50016H18.3334C18.5695 7.50016 18.7674 7.58002 18.9271 7.73975C19.0868 7.89947 19.1667 8.09738 19.1667 8.3335C19.1667 8.56961 19.0868 8.76752 18.9271 8.92725C18.7674 9.08697 18.5695 9.16683 18.3334 9.16683H16.6667V10.8335C16.6667 11.0696 16.5868 11.2675 16.4271 11.4272C16.2674 11.587 16.0695 11.6668 15.8334 11.6668C15.5973 11.6668 15.3993 11.587 15.2396 11.4272C15.0799 11.2675 15 11.0696 15 10.8335V9.16683ZM7.50004 10.0002C6.58337 10.0002 5.79865 9.67377 5.14587 9.021C4.4931 8.36822 4.16671 7.5835 4.16671 6.66683C4.16671 5.75016 4.4931 4.96544 5.14587 4.31266C5.79865 3.65988 6.58337 3.3335 7.50004 3.3335C8.41671 3.3335 9.20143 3.65988 9.85421 4.31266C10.507 4.96544 10.8334 5.75016 10.8334 6.66683C10.8334 7.5835 10.507 8.36822 9.85421 9.021C9.20143 9.67377 8.41671 10.0002 7.50004 10.0002ZM0.833374 15.0002V14.3335C0.833374 13.8613 0.954902 13.4272 1.19796 13.0314C1.44101 12.6356 1.76393 12.3335 2.16671 12.1252C3.02782 11.6946 3.90282 11.3717 4.79171 11.1564C5.6806 10.9411 6.58337 10.8335 7.50004 10.8335C8.41671 10.8335 9.31949 10.9411 10.2084 11.1564C11.0973 11.3717 11.9723 11.6946 12.8334 12.1252C13.2362 12.3335 13.5591 12.6356 13.8021 13.0314C14.0452 13.4272 14.1667 13.8613 14.1667 14.3335V15.0002C14.1667 15.4585 14.0035 15.8509 13.6771 16.1772C13.3507 16.5036 12.9584 16.6668 12.5 16.6668H2.50004C2.04171 16.6668 1.64935 16.5036 1.32296 16.1772C0.996568 15.8509 0.833374 15.4585 0.833374 15.0002Z" fill="#007AFF"/>
</svg>
