<svg width="24" height="24" viewBox="0 0 24 24" fill="none" xmlns="http://www.w3.org/2000/svg">
<path d="M11.9911 15.0247C10.9305 15.0247 10.029 14.6793 9.28655 13.9885C8.54412 13.2978 8.1729 12.4589 8.1729 11.4721V4.36684C8.1729 3.38 8.54412 2.54118 9.28655 1.85039C10.029 1.1596 10.9305 0.814209 11.9911 0.814209C13.0517 0.814209 13.9533 1.1596 14.6957 1.85039C15.4381 2.54118 15.8093 3.38 15.8093 4.36684V11.4721C15.8093 12.4589 15.4381 13.2978 14.6957 13.9885C13.9533 14.6793 13.0517 15.0247 11.9911 15.0247ZM10.81 22.0658V19.6086C8.9853 19.352 7.42341 18.5822 6.12431 17.2993C4.82521 16.0165 4.03682 14.4572 3.75915 12.6217C3.71949 12.2862 3.80874 12 4.02691 11.7632C4.24508 11.5263 4.52275 11.4079 4.85992 11.4079C5.19709 11.4079 5.47972 11.5214 5.7078 11.7484C5.93589 11.9753 6.0896 12.2566 6.16893 12.5921C6.4466 13.9737 7.13582 15.1086 8.23658 15.9967C9.33734 16.8849 10.5918 17.329 12 17.329C13.428 17.329 14.6874 16.8799 15.7783 15.9819C16.8691 15.0839 17.5534 13.954 17.8311 12.5921C17.9104 12.2566 18.0641 11.9753 18.2922 11.7484C18.5203 11.5214 18.8029 11.4079 19.1401 11.4079C19.4773 11.4079 19.7549 11.5263 19.9731 11.7632C20.1913 12 20.2805 12.2862 20.2408 12.6217C19.9632 14.4178 19.1798 15.9671 17.8906 17.2697C16.6014 18.5724 15.0345 19.352 13.19 19.6086V22.0658C13.19 22.4013 13.076 22.6826 12.8479 22.9095C12.6198 23.1365 12.3372 23.25 12 23.25C11.6628 23.25 11.3802 23.1365 11.1521 22.9095C10.924 22.6826 10.81 22.4013 10.81 22.0658ZM11.9911 12.6563C12.3517 12.6563 12.654 12.5428 12.898 12.3159C13.1419 12.0889 13.2639 11.8076 13.2639 11.4721V4.36684C13.2639 4.03131 13.1419 3.75006 12.898 3.52309C12.654 3.29612 12.3517 3.18263 11.9911 3.18263C11.6305 3.18263 11.3282 3.29612 11.0843 3.52309C10.8404 3.75006 10.7184 4.03131 10.7184 4.36684V11.4721C10.7184 11.8076 10.8404 12.0889 11.0843 12.3159C11.3282 12.5428 11.6305 12.6563 11.9911 12.6563Z" fill="#BEBEBE"/>
</svg>
