<svg width="24" height="24" viewBox="0 0 24 24" fill="none" xmlns="http://www.w3.org/2000/svg">
<path d="M12 14.9751C11.0083 14.9751 10.1654 14.628 9.47122 13.9338C8.77705 13.2396 8.42996 12.3967 8.42996 11.405V4.26493C8.42996 3.27325 8.77705 2.43032 9.47122 1.73615C10.1654 1.04197 11.0083 0.694885 12 0.694885C12.9917 0.694885 13.8346 1.04197 14.5288 1.73615C15.223 2.43032 15.57 3.27325 15.57 4.26493V11.405C15.57 12.3967 15.223 13.2396 14.5288 13.9338C13.8346 14.628 12.9917 14.9751 12 14.9751ZM10.81 22.1151V19.6459C8.9853 19.388 7.42341 18.6145 6.12431 17.3253C4.82521 16.0362 4.03682 14.4693 3.75915 12.6248C3.71949 12.2876 3.80874 12 4.02691 11.762C4.24508 11.524 4.52275 11.405 4.85992 11.405C5.19709 11.405 5.47972 11.5191 5.7078 11.7471C5.93589 11.9752 6.0896 12.2579 6.16893 12.595C6.4466 13.9834 7.13582 15.1238 8.23658 16.0163C9.33734 16.9088 10.5918 17.3551 12 17.3551C13.428 17.3551 14.6874 16.9039 15.7783 16.0014C16.8691 15.099 17.5534 13.9635 17.8311 12.595C17.9104 12.2579 18.0641 11.9752 18.2922 11.7471C18.5203 11.5191 18.8029 11.405 19.1401 11.405C19.4773 11.405 19.7549 11.524 19.9731 11.762C20.1913 12 20.2805 12.2876 20.2408 12.6248C19.9632 14.4296 19.1798 15.9866 17.8906 17.2956C16.6014 18.6046 15.0345 19.388 13.19 19.6459V22.1151C13.19 22.4523 13.076 22.7349 12.8479 22.963C12.6198 23.1911 12.3372 23.3052 12 23.3052C11.6628 23.3052 11.3802 23.1911 11.1521 22.963C10.924 22.7349 10.81 22.4523 10.81 22.1151Z" fill="#007AFF"/>
</svg>
