<svg width="21" height="24" viewBox="0 0 21 24" fill="none" xmlns="http://www.w3.org/2000/svg">
<path d="M6.2217 22.8276C4.9847 22.2922 3.9062 21.5645 2.9862 20.6445C2.0662 19.7245 1.3385 18.6462 0.8031 17.4096C0.2677 16.173 0 14.8467 0 13.4307H1.8C1.8 15.7707 2.615 17.7557 4.245 19.3857C5.875 21.0157 7.86 21.8307 10.2 21.8307C12.54 21.8307 14.525 21.0157 16.155 19.3857C17.785 17.7557 18.6 15.7707 18.6 13.4307C18.6 11.0907 17.785 9.1057 16.155 7.4757C14.525 5.8457 12.54 5.0307 10.2 5.0307H9.8814L11.7876 6.9369L10.5231 8.2383L6.4155 4.1193L10.5462 0L11.8107 1.3014L9.8814 3.2307H10.2C11.616 3.2307 12.9423 3.4984 14.1789 4.0338C15.4155 4.5692 16.4938 5.2969 17.4138 6.2169C18.3338 7.1369 19.0615 8.2151 19.5969 9.4515C20.1323 10.6881 20.4 12.0143 20.4 13.4301C20.4 14.8459 20.1323 16.1722 19.5969 17.409C19.0615 18.646 18.3338 19.7245 17.4138 20.6445C16.4938 21.5645 15.4156 22.2922 14.1792 22.8276C12.9426 23.363 11.6164 23.6307 10.2006 23.6307C8.7848 23.6307 7.4585 23.363 6.2217 22.8276ZM7.3845 16.8462V15.4152H10.9845V13.9614H7.3845V10.0152H12.4155V11.4462H8.8155V12.9H11.4C11.6876 12.9 11.9288 12.9973 12.1236 13.1919C12.3182 13.3865 12.4155 13.6276 12.4155 13.9152V15.8307C12.4155 16.1183 12.3182 16.3595 12.1236 16.5543C11.9288 16.7489 11.6876 16.8462 11.4 16.8462H7.3845Z" fill="#282828"/>
</svg>
