<svg width="20" height="20" viewBox="0 0 20 20" fill="none" xmlns="http://www.w3.org/2000/svg">
<path d="M8.56881 15.748C8.34677 16.2365 7.6529 16.2365 7.43085 15.748L5.59683 11.7132C5.5343 11.5756 5.42405 11.4654 5.28648 11.4028L1.25163 9.56881C0.76313 9.34677 0.763129 8.6529 1.25163 8.43085L5.28648 6.59683C5.42405 6.5343 5.5343 6.42405 5.59683 6.28648L7.43085 2.25163C7.6529 1.76313 8.34677 1.76313 8.56881 2.25163L10.4028 6.28648C10.4654 6.42405 10.5756 6.5343 10.7132 6.59683L14.748 8.43085C15.2365 8.6529 15.2365 9.34677 14.748 9.56881L10.7132 11.4028C10.5756 11.4654 10.4654 11.5756 10.4028 11.7132L8.56881 15.748ZM16.5688 17.748C16.3467 18.2365 15.6529 18.2365 15.4308 17.748L14.8468 16.4632C14.7843 16.3256 14.674 16.2153 14.5364 16.1528L13.2516 15.5688C12.7631 15.3467 12.7631 14.6529 13.2516 14.4308L14.5364 13.8468C14.674 13.7843 14.7843 13.674 14.8468 13.5364L15.4308 12.2516C15.6529 11.7631 16.3467 11.7631 16.5688 12.2516L17.1528 13.5364C17.2153 13.674 17.3256 13.7843 17.4632 13.8468L18.748 14.4308C19.2365 14.6529 19.2365 15.3467 18.748 15.5688L17.4632 16.1528C17.3256 16.2153 17.2153 16.3256 17.1528 16.4632L16.5688 17.748Z" fill="black"/>
</svg>
