<svg width="15" height="13" viewBox="0 0 15 13" fill="none" xmlns="http://www.w3.org/2000/svg">
<path d="M6.14685 11.0902C5.96921 11.481 5.41411 11.481 5.23648 11.0902L3.76926 7.86235C3.71924 7.75229 3.63103 7.66409 3.52098 7.61406L0.293099 6.14685C-0.0976993 5.96921 -0.0976998 5.41411 0.293098 5.23648L3.52098 3.76926C3.63103 3.71924 3.71924 3.63103 3.76926 3.52098L5.23648 0.293099C5.41411 -0.0976993 5.96921 -0.0976998 6.14685 0.293098L7.61406 3.52098C7.66409 3.63103 7.75229 3.71924 7.86235 3.76926L11.0902 5.23648C11.481 5.41411 11.481 5.96921 11.0902 6.14685L7.86235 7.61406C7.75229 7.66409 7.66409 7.75229 7.61406 7.86235L6.14685 11.0902ZM12.5468 12.6902C12.3692 13.081 11.8141 13.081 11.6364 12.6902L11.1692 11.6623C11.1192 11.5523 11.031 11.4641 10.9209 11.414L9.89305 10.9468C9.50225 10.7692 9.50225 10.2141 9.89305 10.0365L10.9209 9.56923C11.031 9.51921 11.1192 9.431 11.1692 9.32095L11.6364 8.29306C11.8141 7.90226 12.3692 7.90226 12.5468 8.29306L13.014 9.32095C13.0641 9.431 13.1523 9.51921 13.2623 9.56923L14.2902 10.0365C14.681 10.2141 14.681 10.7692 14.2902 10.9468L13.2623 11.414C13.1523 11.4641 13.0641 11.5523 13.014 11.6623L12.5468 12.6902Z" fill="#BEBEBE"/>
</svg>
