<svg width="34" height="32" viewBox="0 0 34 32" fill="none" xmlns="http://www.w3.org/2000/svg">
<rect width="34" height="32" rx="6" fill="#007AFF"/>
<path d="M23 15.1668H21.3334C21.0973 15.1668 20.8993 15.087 20.7396 14.9272C20.5799 14.7675 20.5 14.5696 20.5 14.3335C20.5 14.0974 20.5799 13.8995 20.7396 13.7397C20.8993 13.58 21.0973 13.5002 21.3334 13.5002H23V11.8335C23 11.5974 23.0799 11.3995 23.2396 11.2397C23.3993 11.08 23.5973 11.0002 23.8334 11.0002C24.0695 11.0002 24.2674 11.08 24.4271 11.2397C24.5868 11.3995 24.6667 11.5974 24.6667 11.8335V13.5002H26.3334C26.5695 13.5002 26.7674 13.58 26.9271 13.7397C27.0868 13.8995 27.1667 14.0974 27.1667 14.3335C27.1667 14.5696 27.0868 14.7675 26.9271 14.9272C26.7674 15.087 26.5695 15.1668 26.3334 15.1668H24.6667V16.8335C24.6667 17.0696 24.5868 17.2675 24.4271 17.4272C24.2674 17.587 24.0695 17.6668 23.8334 17.6668C23.5973 17.6668 23.3993 17.587 23.2396 17.4272C23.0799 17.2675 23 17.0696 23 16.8335V15.1668ZM15.5 16.0002C14.5834 16.0002 13.7987 15.6738 13.1459 15.021C12.4931 14.3682 12.1667 13.5835 12.1667 12.6668C12.1667 11.7502 12.4931 10.9654 13.1459 10.3127C13.7987 9.65988 14.5834 9.3335 15.5 9.3335C16.4167 9.3335 17.2014 9.65988 17.8542 10.3127C18.507 10.9654 18.8334 11.7502 18.8334 12.6668C18.8334 13.5835 18.507 14.3682 17.8542 15.021C17.2014 15.6738 16.4167 16.0002 15.5 16.0002ZM8.83337 21.0002V20.3335C8.83337 19.8613 8.9549 19.4272 9.19796 19.0314C9.44101 18.6356 9.76393 18.3335 10.1667 18.1252C11.0278 17.6946 11.9028 17.3717 12.7917 17.1564C13.6806 16.9411 14.5834 16.8335 15.5 16.8335C16.4167 16.8335 17.3195 16.9411 18.2084 17.1564C19.0973 17.3717 19.9723 17.6946 20.8334 18.1252C21.2362 18.3335 21.5591 18.6356 21.8021 19.0314C22.0452 19.4272 22.1667 19.8613 22.1667 20.3335V21.0002C22.1667 21.4585 22.0035 21.8509 21.6771 22.1772C21.3507 22.5036 20.9584 22.6668 20.5 22.6668H10.5C10.0417 22.6668 9.64935 22.5036 9.32296 22.1772C8.99657 21.8509 8.83337 21.4585 8.83337 21.0002Z" fill="#F3FBFF"/>
</svg>
