<svg width="24" height="24" viewBox="0 0 24 24" fill="none" xmlns="http://www.w3.org/2000/svg">
<path d="M10.3997 20.7892H2.39973L3.23596 12.833H11.236L10.3997 20.7892ZM20.8356 12.833L19.9993 20.7892H11.9993L12.8356 12.833H20.8356ZM4.16665 19.1974H8.96743L9.46915 14.4239H4.66836L4.16665 19.1974ZM13.7672 19.1974H18.567L19.0688 14.4239H14.2689L13.7672 19.1974ZM22.5128 7.26313L16.8888 12.327L12.3302 7.26313L17.9531 2.2002L22.5128 7.26313ZM11.4033 11.2412H3.40327L4.23949 3.28504H12.2395L11.4033 11.2412ZM14.5929 7.26313L17.1253 10.0767L20.2501 7.26313L17.7166 4.4505L14.5929 7.26313ZM5.17008 9.65037H9.97086L10.4726 4.87686H5.6718L5.17008 9.65037Z" fill="#999999"/>
</svg>
